<svg xmlns="http://www.w3.org/2000/svg" version="1.1" xmlns:xlink="http://www.w3.org/1999/xlink" xmlns:svgjs="http://svgjs.dev/svgjs" width="1500" height="1500" viewBox="0 0 1500 1500"><rect width="1500" height="1500" fill="#333366"></rect><g transform="matrix(0.6666666666666666,0,0,0.6666666666666666,249.39393939393938,438.5856950067477)"><svg viewBox="0 0 396 247" data-background-color="#333366" preserveAspectRatio="xMidYMid meet" height="935" width="1500" xmlns="http://www.w3.org/2000/svg" xmlns:xlink="http://www.w3.org/1999/xlink"><g id="tight-bounds" transform="matrix(1,0,0,1,0.2400000000000091,-0.09999999999999432)"><svg viewBox="0 0 395.52 247.2" height="247.2" width="395.52"><g><svg></svg></g><g><svg viewBox="0 0 395.52 247.2" height="247.2" width="395.52"><mask id="d6a1def4-9732-46ec-8ff5-ca1cc7c91c0a"><rect width="395.52" height="247.2" fill="white"></rect><g transform="matrix(1,0,0,1,0,53.1018055173638)" id="clone"><svg viewBox="0 0 395.52 140.9963889652724" height="140.9963889652724" width="395.52"><g><svg viewBox="0 0 395.52 140.9963889652724" height="140.9963889652724" width="395.52"><g><svg viewBox="0 0 395.52 140.9963889652724" height="140.9963889652724" width="395.52"><g><svg viewBox="0 0 395.52 140.9963889652724" height="140.9963889652724" width="395.52"><g id="SvgjsG3240"><svg viewBox="0 0 395.52 140.9963889652724" height="140.9963889652724" width="395.52" id="SvgjsSvg3239"><g><svg viewBox="0 0 395.52 102.96913954805814" height="102.96913954805814" width="395.52"><g transform="matrix(1,0,0,1,0,0)"><svg width="395.52" viewBox="-2.794444222215 -35.05 199.574444222215 52.699999999999996" height="102.96913954805814" data-palette-color="#ffffff"><path d="M11.05 3.7L11.05 3.7Q7.7 3.7 6.38 1.65 5.05-0.4 5.05-3.6L5.05-3.6Q5.05-5.45 5.4-7.53 5.75-9.6 6.4-11.75L6.4-11.75Q4.55-11.5 3.08-11.13 1.6-10.75 0.85-10.35L0.85-10.35Q0.55-10.2 0.45-10.2L0.45-10.2Q0.05-10.2 0.3-10.9 0.55-11.6 0.9-11.9L0.9-11.9Q1.6-12.25 3.18-12.55 4.75-12.85 6.8-13.05L6.8-13.05Q7.65-15.75 8.75-18.3 9.85-20.85 11-23 12.15-25.15 13.23-26.58 14.3-28 15.05-28.45L15.05-28.45Q15.15-28.55 15.3-28.55 15.45-28.55 15.55-28.55L15.55-28.55Q16.05-28.55 16.05-28.3L16.05-28.3Q16.05-28.1 15.6-27.85L15.6-27.85Q15-27.5 14.08-26.18 13.15-24.85 12.15-22.83 11.15-20.8 10.15-18.32 9.15-15.85 8.4-13.25L8.4-13.25Q10.6-13.45 12.98-13.55 15.35-13.65 17.65-13.65L17.65-13.65Q19.3-13.65 20.8-13.6 22.3-13.55 23.55-13.45L23.55-13.45Q23.9-18.15 25.18-22.45 26.45-26.75 28.75-29.5L28.75-29.5Q29.5-30.4 30.78-31.23 32.05-32.05 33.4-32.05L33.4-32.05Q34.25-32.05 35-31.55 35.75-31.05 36.35-29.9L36.35-29.9Q36.45-29.6 36.45-29.5L36.45-29.5Q36.45-29.1 36.2-29.1L36.2-29.1Q35.95-29.1 35.7-29.5L35.7-29.5Q35.2-30.65 34-30.65L34-30.65Q32.9-30.65 31.68-29.85 30.45-29.05 29.85-28.35L29.85-28.35Q27.55-25.2 26.28-21.3 25-17.4 24.65-13.3L24.65-13.3 26-13.1Q26.75-12.9 27.38-12.53 28-12.15 28-11.95L28-11.95Q28-11.85 27.7-11.85L27.7-11.85Q27.6-11.85 27.4-11.88 27.2-11.9 26.95-11.95L26.95-11.95Q26.5-12.05 25.9-12.15 25.3-12.25 24.6-12.3L24.6-12.3Q24.55-11.75 24.55-11.2 24.55-10.65 24.55-10.1L24.55-10.1Q24.55-6.6 25.13-3.23 25.7 0.15 26.7 3.1L26.7 3.1Q26.85 3.45 26.85 3.75L26.85 3.75Q26.85 4.1 26.6 4.1L26.6 4.1Q26.3 4.1 25.95 3.6L25.95 3.6Q24.7 1.1 24.08-2.48 23.45-6.05 23.45-10L23.45-10Q23.45-10.6 23.45-11.2 23.45-11.8 23.5-12.45L23.5-12.45Q21.4-12.6 18.85-12.6L18.85-12.6Q16.25-12.6 13.43-12.45 10.6-12.3 8.1-12L8.1-12Q7.5-9.85 7.15-7.73 6.8-5.6 6.8-3.8L6.8-3.8Q6.8-0.9 7.88 0.95 8.95 2.8 11.55 2.8L11.55 2.8Q12.15 2.8 12.65 2.55L12.65 2.55 12.6 2.55Q12.95 2.35 13.2 2.35L13.2 2.35Q13.4 2.35 13.4 2.5L13.4 2.5Q13.4 2.8 12.9 3.15L12.9 3.15Q12.45 3.45 11.98 3.58 11.5 3.7 11.05 3.7ZM30.35 2.3L30.35 2.3Q28.6 2.3 27.2 1.53 25.8 0.75 25.8-1.55L25.8-1.55Q25.8-4.1 27.45-5.93 29.1-7.75 31.75-8.95 34.4-10.15 37.42-10.83 40.45-11.5 43.2-11.75L43.2-11.75Q44.65-15.15 45.97-18.75 47.3-22.35 48.1-25.25L48.1-25.25Q48.2-25.55 48.4-25.65L48.4-25.65Q48.6-26.15 48.7-26.15L48.7-26.15Q48.8-26.15 48.85-25.7L48.85-25.7 48.95-25.55Q48.95-25.35 48.85-25.25L48.85-25.25 48.85-25.3Q48.85-25.6 48.85-25.7L48.85-25.7Q48.65-25.85 48.4-25.65L48.4-25.65Q48.1-24.85 47.65-23.1 47.2-21.35 46.65-19.23 46.1-17.1 45.52-15.1 44.95-13.1 44.45-11.85L44.45-11.85Q45.1-11.9 45.75-11.9 46.4-11.9 46.95-11.9L46.95-11.9Q47.35-11.9 48.02-11.88 48.7-11.85 49.5-11.75L49.5-11.75Q49.4-12.9 49.35-14 49.3-15.1 49.3-16.2L49.3-16.2Q49.3-18.7 49.55-21.1 49.8-23.5 50.2-25.3L50.2-25.3Q50.6-27.4 50.95-27.95L50.95-27.95 51.25-27.95Q51.5-27.95 51.97-27.7 52.45-27.45 52.45-27.2L52.45-27.2Q51.95-25.5 51.45-23.1 50.95-20.7 50.8-18.45L50.8-18.45Q50.75-17.65 50.7-16.75 50.65-15.85 50.65-14.95L50.65-14.95Q50.65-14.15 50.67-13.3 50.7-12.45 50.75-11.6L50.75-11.6Q52.35-11.3 53.67-10.63 55-9.95 55-8.55L55-8.55Q55-7.55 54.6-7.55L54.6-7.55Q54.25-7.55 54.25-8.55L54.25-8.55Q54.25-8.95 53.97-9.22 53.7-9.5 53.45-9.6L53.45-9.6Q53.05-9.85 52.37-10.05 51.7-10.25 50.9-10.45L50.9-10.45Q51.15-8.25 51.75-6.13 52.35-4 53.45-2.25L53.45-2.25Q54.05-1.2 54.72-0.7 55.4-0.2 55.9 0.05L55.9 0.05Q55.9 0.05 55.92 0 55.95-0.05 56 0.25L56 0.25Q56.05 0.3 56.05 0.45L56.05 0.45Q56.05 0.65 55.87 0.75 55.7 0.85 55.45 0.65L55.45 0.65 55.5 0.65Q52.9-0.55 51.52-3.7 50.15-6.85 49.65-10.65L49.65-10.65Q48.85-10.8 48.1-10.88 47.35-10.95 46.9-11L46.9-11Q46.25-11 45.55-11 44.85-11 44.1-10.9L44.1-10.9Q43.15-8.6 41.8-6.1 40.45-3.6 38.6-1.53 36.75 0.55 34.25 1.6L34.25 1.6Q33.6 1.85 32.55 2.08 31.5 2.3 30.35 2.3ZM30.3 1.05L30.3 1.05Q31.3 1.05 32.27 0.85 33.25 0.65 33.95 0.35L33.95 0.35Q36.1-0.55 37.7-2.3 39.3-4.05 40.52-6.3 41.75-8.55 42.8-10.85L42.8-10.85Q40.2-10.65 37.4-10.03 34.6-9.4 32.2-8.3 29.8-7.2 28.32-5.55 26.85-3.9 26.85-1.6L26.85-1.6Q26.8-0.1 27.87 0.48 28.95 1.05 30.3 1.05ZM63.35 14.65L63.35 14.65Q60.8 14.65 58.62 13.7 56.45 12.75 55.12 10.75 53.8 8.75 53.8 5.6L53.8 5.6Q53.8 4.4 54.15 4.4L54.15 4.4Q54.55 4.4 54.55 6L54.55 6Q54.55 8.55 56.02 10.18 57.5 11.8 59.8 12.6 62.1 13.4 64.5 13.4L64.5 13.4Q65.95 13.4 67.37 13.13 68.8 12.85 69.9 12.3L69.9 12.3Q73.3 10.65 75.77 6.9 78.25 3.15 78.8-2.4L78.8-2.4Q78.95-3.25 79-4.13 79.05-5 79.05-5.9L79.05-5.9Q79.05-7.95 78.9-9.95L78.9-9.95Q78.84-11 78.82-12.03 78.8-13.05 78.8-14.15L78.8-14.15Q78.8-14.3 78.75-14.28 78.7-14.25 78.7-14.2L78.7-14.2Q77.75-12.35 76.27-10.25 74.8-8.15 72.92-6.13 71.05-4.1 69-2.45 66.95-0.8 64.9 0.2 62.85 1.2 60.95 1.2L60.95 1.2Q59.3 1.2 58.7 0.15 58.1-0.9 58.1-2.15L58.1-2.15Q58.1-2.7 58.22-3.23 58.35-3.75 58.45-4.2L58.45-4.2Q59.05-5.95 60.02-7.85 61-9.75 62.1-11.65L62.1-11.65Q63.35-13.95 64.52-16.3 65.7-18.65 66.47-21.05 67.25-23.45 67.25-25.85L67.25-25.85Q67.25-28.65 65.65-29.9 64.05-31.15 61.4-31.15L61.4-31.15Q60.75-31.15 59.95-30.9 59.15-30.65 58.85-30.4L58.85-30.4Q58.55-30.15 58.25-30.15L58.25-30.15Q58-30.15 58-30.4L58-30.4Q58-30.6 58.3-30.9L58.3-30.9Q58.75-31.3 59.8-31.68 60.85-32.05 62.1-32.05L62.1-32.05Q64.45-32.05 66.37-30.8 68.3-29.55 69-26.95L69-26.95Q69.25-25.85 69.25-24.8L69.25-24.8Q69.25-22.7 68.45-20.43 67.65-18.15 66.42-15.83 65.2-13.5 63.85-11.25L63.85-11.25Q62.65-9.35 61.57-7.33 60.5-5.3 59.9-3.6L59.9-3.6Q59.7-3 59.57-2.45 59.45-1.9 59.45-1.5L59.45-1.5Q59.45-0.4 60.05 0.03 60.65 0.45 61.3 0.45L61.3 0.45Q63 0.45 65.12-0.78 67.25-2 69.42-3.98 71.59-5.95 73.55-8.2 75.5-10.45 76.87-12.55 78.25-14.65 78.75-16.1L78.75-16.1 78.75-16.4Q78.75-17.7 78.95-19.53 79.15-21.35 80.3-23.1L80.3-23.1Q80.5-23.4 80.84-23.68 81.2-23.95 81.5-23.95L81.5-23.95Q81.9-23.95 81.95-23.55L81.95-23.55Q82-23.4 82-23.05L82-23.05Q82-22.35 81.65-21.23 81.3-20.1 80.8-18.95 80.3-17.8 79.8-16.9L79.8-16.9Q79.8-16 79.9-14.48 80-12.95 80.15-11.65L80.15-11.65Q80.34-9.95 80.52-8.03 80.7-6.1 80.7-4.1L80.7-4.1Q80.7-2.25 80.5-0.53 80.3 1.2 79.75 2.8L79.75 2.8Q78.4 6.6 75.75 9.2 73.09 11.8 70.2 13.1L70.2 13.1Q66.8 14.65 63.35 14.65ZM84.54 2.3L84.54 2.3Q82.79 2.3 81.39 1.53 79.99 0.75 79.99-1.55L79.99-1.55Q79.99-4.1 81.64-5.93 83.29-7.75 85.94-8.95 88.59-10.15 91.62-10.83 94.64-11.5 97.39-11.75L97.39-11.75Q98.84-15.15 100.17-18.75 101.49-22.35 102.29-25.25L102.29-25.25Q102.39-25.55 102.59-25.65L102.59-25.65Q102.79-26.15 102.89-26.15L102.89-26.15Q102.99-26.15 103.04-25.7L103.04-25.7 103.14-25.55Q103.14-25.35 103.04-25.25L103.04-25.25 103.04-25.3Q103.04-25.6 103.04-25.7L103.04-25.7Q102.84-25.85 102.59-25.65L102.59-25.65Q102.29-24.85 101.84-23.1 101.39-21.35 100.84-19.23 100.29-17.1 99.72-15.1 99.14-13.1 98.64-11.85L98.64-11.85Q99.29-11.9 99.94-11.9 100.59-11.9 101.14-11.9L101.14-11.9Q101.54-11.9 102.22-11.88 102.89-11.85 103.69-11.75L103.69-11.75Q103.59-12.9 103.54-14 103.49-15.1 103.49-16.2L103.49-16.2Q103.49-18.7 103.74-21.1 103.99-23.5 104.39-25.3L104.39-25.3Q104.79-27.4 105.14-27.95L105.14-27.95 105.44-27.95Q105.69-27.95 106.17-27.7 106.64-27.45 106.64-27.2L106.64-27.2Q106.14-25.5 105.64-23.1 105.14-20.7 104.99-18.45L104.99-18.45Q104.94-17.65 104.89-16.75 104.84-15.85 104.84-14.95L104.84-14.95Q104.84-14.15 104.87-13.3 104.89-12.45 104.94-11.6L104.94-11.6Q106.54-11.3 107.87-10.63 109.19-9.95 109.19-8.55L109.19-8.55Q109.19-7.55 108.79-7.55L108.79-7.55Q108.44-7.55 108.44-8.55L108.44-8.55Q108.44-8.95 108.17-9.22 107.89-9.5 107.64-9.6L107.64-9.6Q107.24-9.85 106.57-10.05 105.89-10.25 105.09-10.45L105.09-10.45Q105.34-8.25 105.94-6.13 106.54-4 107.64-2.25L107.64-2.25Q108.24-1.2 108.92-0.7 109.59-0.2 110.09 0.05L110.09 0.05Q110.09 0.05 110.12 0 110.14-0.05 110.19 0.25L110.19 0.25Q110.24 0.3 110.24 0.45L110.24 0.45Q110.24 0.65 110.07 0.75 109.89 0.85 109.64 0.65L109.64 0.65 109.69 0.65Q107.09-0.55 105.72-3.7 104.34-6.85 103.84-10.65L103.84-10.65Q103.04-10.8 102.29-10.88 101.54-10.95 101.09-11L101.09-11Q100.44-11 99.74-11 99.04-11 98.29-10.9L98.29-10.9Q97.34-8.6 95.99-6.1 94.64-3.6 92.79-1.53 90.94 0.55 88.44 1.6L88.44 1.6Q87.79 1.85 86.74 2.08 85.69 2.3 84.54 2.3ZM84.49 1.05L84.49 1.05Q85.49 1.05 86.47 0.85 87.44 0.65 88.14 0.35L88.14 0.35Q90.29-0.55 91.89-2.3 93.49-4.05 94.72-6.3 95.94-8.55 96.99-10.85L96.99-10.85Q94.39-10.65 91.59-10.03 88.79-9.4 86.39-8.3 83.99-7.2 82.52-5.55 81.04-3.9 81.04-1.6L81.04-1.6Q80.99-0.1 82.07 0.48 83.14 1.05 84.49 1.05ZM114.89 3.85L114.89 3.85Q114.49 4.55 114.09 4.55L114.09 4.55Q113.74 4.55 113.47 4.03 113.19 3.5 113.19 2.9L113.19 2.9Q113.19 2.45 113.34 2.15L113.34 2.15Q114.04 0.6 114.91-1.13 115.79-2.85 116.79-4.55L116.79-4.55Q117.29-6.45 117.52-8.47 117.74-10.5 117.74-12.5L117.74-12.5Q117.74-15.85 116.99-19.23 116.24-22.6 114.49-25.65L114.49-25.65Q114.19-26.25 113.52-26.9 112.84-27.55 112.02-28.03 111.19-28.5 110.44-28.5L110.44-28.5Q110.09-28.5 109.64-28.23 109.19-27.95 108.89-27.55L108.89-27.55Q108.64-27.3 108.54-27.3L108.54-27.3Q108.24-27.3 108.24-27.7L108.24-27.7Q108.24-27.8 108.34-28.1L108.34-28.1Q109.59-29.8 111.09-29.8L111.09-29.8Q112.54-29.8 113.81-28.75 115.09-27.7 115.69-26.7L115.69-26.7Q117.34-24.05 118.06-20.55 118.79-17.05 118.79-13.2L118.79-13.2Q118.79-11.75 118.69-10.25 118.59-8.75 118.39-7.3L118.39-7.3Q119.04-8.7 120.09-10.63 121.14-12.55 122.39-14.63 123.64-16.7 124.99-18.65 126.34-20.6 127.66-22.08 128.99-23.55 130.09-24.2L130.09-24.2 129.99-24.2Q131.29-25 132.54-25L132.54-25Q133.59-25 134.29-24.33 134.99-23.65 134.99-22.2L134.99-22.2Q134.99-22 134.99-21.8 134.99-21.6 134.94-21.35L134.94-21.35Q134.84-20.3 134.19-18.63 133.54-16.95 132.66-15 131.79-13.05 130.94-11.15L130.94-11.15Q129.74-8.55 128.76-6.35 127.79-4.15 127.79-3.35L127.79-3.35Q127.79-3 128.04-3L128.04-3Q129.14-3 130.56-4.03 131.99-5.05 133.51-6.63 135.04-8.2 136.49-9.95 137.94-11.7 139.14-13.2L139.14-13.2 140.19-14.5Q140.44-14.8 141.12-15.38 141.79-15.95 142.29-15.95L142.29-15.95Q142.79-15.95 142.79-15.25L142.79-15.25Q142.79-14.9 142.37-13.93 141.94-12.95 141.29-11.6L141.29-11.6Q140.94-10.85 140.49-9.55 140.04-8.25 139.72-6.73 139.39-5.2 139.39-3.75L139.39-3.75Q139.39-1.9 140.16-0.53 140.94 0.85 143.04 0.85L143.04 0.85Q144.19 0.85 144.99 0.33 145.79-0.2 146.29-0.85L146.29-0.85Q146.64-1.25 146.74-1.5L146.74-1.5Q146.99-2.05 147.14-2.05L147.14-2.05Q147.44-2.05 147.44-1.65L147.44-1.65Q147.44-0.85 146.72-0.08 145.99 0.7 144.94 1.23 143.89 1.75 142.94 1.75L142.94 1.75Q140.89 1.75 139.74 0.93 138.59 0.1 138.14-1.28 137.69-2.65 137.69-4.3L137.69-4.3Q137.69-5.95 138.06-7.73 138.44-9.5 138.79-10.85L138.79-10.85Q138.44-10.5 138.01-10 137.59-9.5 137.04-8.95L137.04-8.95Q135.99-7.8 134.76-6.48 133.54-5.15 132.29-4 131.04-2.85 129.89-2.13 128.74-1.4 127.84-1.4L127.84-1.4Q127.49-1.4 126.79-1.93 126.09-2.45 126.14-2.95L126.14-2.95Q126.34-4.4 127.29-6.58 128.24-8.75 129.34-11.1L129.34-11.1Q130.79-14.05 131.99-16.95 133.19-19.85 133.19-21.9L133.19-21.9Q133.19-22.8 132.87-23.1 132.54-23.4 132.09-23.4L132.09-23.4Q130.74-23.4 129.29-22.25 127.84-21.1 126.44-19.25 125.04-17.4 123.72-15.18 122.39-12.95 121.24-10.8 120.09-8.65 119.24-6.95L119.24-6.95Q118.74-6 118.34-5.2 117.94-4.4 117.69-3.95L117.69-3.95 117.69-4Q117.14-1.55 116.49 0.3 115.84 2.15 114.89 3.85ZM151.39 0.5L151.39 0.5Q151.04 0.5 150.81 0.08 150.59-0.35 150.59-0.6L150.59-0.6Q150.59-0.85 150.79-1.07 150.99-1.3 151.19-1.45L151.19-1.45Q151.44-1.65 151.84-1.88 152.24-2.1 152.59-2.3L152.59-2.3Q152.79-2.45 152.79-2.25L152.79-2.25Q152.79-2.05 152.69-1.68 152.59-1.3 152.54-0.85L152.54-0.85Q152.49 0 152.06 0.23 151.64 0.45 151.39 0.5ZM157.18 0.1L157.18 0.1Q156.28-0.4 155.93-1.35 155.58-2.3 155.58-3.35L155.58-3.35Q155.58-4.15 155.71-4.9 155.83-5.65 156.03-6.25L156.03-6.25Q156.28-7 156.58-7.7 156.88-8.4 157.23-9.1L157.23-9.1Q157.58-9.7 158.16-10.53 158.73-11.35 159.48-11.98 160.23-12.6 161.03-12.6L161.03-12.6Q161.48-12.6 161.88-12.4L161.88-12.4Q162.43-12.15 162.66-11.58 162.88-11 162.88-10.3L162.88-10.3Q162.88-9.5 162.68-8.72 162.48-7.95 162.33-7.4L162.33-7.4Q162.33-7.25 162.23-7.15L162.23-7.15Q162.13-6.95 161.96-6.83 161.78-6.7 161.58-6.8L161.58-6.8Q161.13-7.05 161.13-7.4L161.13-7.4Q161.13-7.7 161.31-8 161.48-8.3 161.48-8.5L161.48-8.5Q161.53-8.75 161.58-9.13 161.63-9.5 161.63-9.9L161.63-9.9Q161.63-10.45 161.48-10.9 161.33-11.35 160.88-11.35L160.88-11.35Q160.38-11.35 159.86-10.73 159.33-10.1 158.91-9.38 158.48-8.65 158.28-8.4L158.28-8.4Q157.98-7.85 157.53-6.88 157.08-5.9 156.76-4.78 156.43-3.65 156.43-2.6L156.43-2.6Q156.43-1.9 156.68-1.33 156.93-0.75 157.48-0.45L157.48-0.45Q157.88-0.2 158.48-0.2L158.48-0.2Q159.03-0.2 159.56-0.38 160.08-0.55 160.53-0.75L160.53-0.75Q160.98-0.95 161.36-1.15 161.73-1.35 162.08-1.55L162.08-1.55Q162.33-1.75 162.63-1.75L162.63-1.75Q162.83-1.75 162.83-1.6L162.83-1.6Q162.83-1.45 162.28-1.1L162.28-1.1Q161.33-0.45 160.33-0.03 159.33 0.4 158.43 0.4L158.43 0.4Q157.78 0.4 157.18 0.1ZM168.03-0.4L168.03-0.4Q166.88-0.4 165.91-0.88 164.93-1.35 164.93-2.65L164.93-2.65Q164.93-3.1 164.98-3.25L164.98-3.25Q164.33-3.9 164.33-4.95L164.33-4.95Q164.33-6.05 164.91-7.28 165.48-8.5 166.18-9.35L166.18-9.35Q167.43-10.8 169.36-11.93 171.28-13.05 173.23-13.05L173.23-13.05Q175.13-13.05 176.33-11.9 177.53-10.75 177.53-8.85L177.53-8.85Q177.53-7.2 176.66-5.68 175.78-4.15 174.36-2.95 172.93-1.75 171.26-1.07 169.58-0.4 168.03-0.4ZM168.03-1L168.03-1Q170.03-1 171.98-2.05 173.93-3.1 175.23-4.88 176.53-6.65 176.53-8.7L176.53-8.7Q176.53-10.3 175.73-11.3 174.93-12.3 173.28-12.3L173.28-12.3Q171.48-12.3 169.73-11.2 167.98-10.1 166.78-8.4 165.58-6.7 165.43-4.9L165.43-4.9Q165.98-6.2 167.63-8.18 169.28-10.15 172.33-11.65L172.33-11.65Q172.38-11.7 172.53-11.7L172.53-11.7Q172.78-11.7 172.93-11.33 173.08-10.95 173.08-10.65L173.08-10.65Q173.08-10.6 172.98-10.38 172.88-10.15 172.73-10.05L172.73-10.05Q172.58-9.95 172.18-9.65 171.78-9.35 171.41-9.08 171.03-8.8 170.93-8.8L170.93-8.8Q170.78-8.8 170.78-8.9L170.78-8.9Q170.78-9.1 170.96-9.35 171.13-9.6 171.18-9.65L171.18-9.65Q170.13-9.05 168.96-8.05 167.78-7.05 166.96-5.83 166.13-4.6 166.03-3.25L166.03-3.25Q166.18-3.15 166.61-2.98 167.03-2.8 167.03-2.7L167.03-2.7Q167.03-2.55 166.83-2.55L166.83-2.55Q166.63-2.55 166.43-2.6 166.23-2.65 166.03-2.7L166.03-2.7Q166.03-1.7 166.53-1.35 167.03-1 168.03-1ZM179.93 0.5L179.93 0.5Q179.48 0.5 179.2 0.15 178.93-0.2 178.88-0.55L178.88-0.55Q178.88-0.95 178.98-1.1L178.98-1.1Q179.28-2.05 179.43-3.4 179.58-4.75 179.58-6.15L179.58-6.15Q179.58-7 179.53-7.75 179.48-8.5 179.38-9.15L179.38-9.15Q179.28-10.2 178.93-11.45 178.58-12.7 177.48-13.4L177.48-13.4Q177.38-13.4 177.35-13.55 177.33-13.7 177.43-13.7L177.43-13.7Q177.63-13.7 177.73-13.6L177.73-13.6Q178.88-12.95 179.6-11.5 180.33-10.05 180.68-8.33 181.03-6.6 181.03-5.05L181.03-5.05Q181.03-4.6 181-4.2 180.98-3.8 180.93-3.4L180.93-3.4Q181.53-4.75 182.3-6.3 183.08-7.85 183.9-9.18 184.73-10.5 185.43-11.05L185.43-11.05Q185.83-11.4 186.33-11.63 186.83-11.85 187.33-11.85L187.33-11.85Q188.03-11.85 188.3-11.4 188.58-10.95 188.58-10.25L188.58-10.25Q188.58-9.5 187.98-8.3 187.38-7.1 186.65-5.85 185.93-4.6 185.48-3.78 185.03-2.95 185.33-2.95L185.33-2.95Q186.13-2.95 187.03-3.73 187.93-4.5 188.8-5.53 189.68-6.55 190.33-7.35L190.33-7.35Q190.58-7.65 190.98-7.95 191.38-8.25 191.83-8.25L191.83-8.25Q192.23-8.25 192.23-7.85L192.23-7.85Q192.23-7.7 192.15-7.58 192.08-7.45 192.03-7.35L192.03-7.35Q191.58-6.2 191.3-5 191.03-3.8 191.03-2.65L191.03-2.65Q191.03-2.15 191.13-1.55 191.23-0.95 191.88-0.95L191.88-0.95Q192.68-0.95 193.08-1.58 193.48-2.2 193.68-2.2L193.68-2.2Q193.78-2.2 193.78-2.05L193.78-2.05Q193.78-1.65 193.3-1.25 192.83-0.85 192.28-0.58 191.73-0.3 191.38-0.3L191.38-0.3Q190.33-0.3 190-1.18 189.68-2.05 189.68-2.85L189.68-2.85Q189.68-3.7 189.9-4.6 190.13-5.5 190.33-6.3L190.33-6.3Q189.98-5.95 189.3-5.23 188.63-4.5 187.85-3.75 187.08-3 186.35-2.48 185.63-1.95 185.08-1.95L185.08-1.95Q184.93-1.95 184.65-2.18 184.38-2.4 184.38-2.6L184.38-2.6Q184.33-3.2 184.8-4.35 185.28-5.5 185.8-6.63 186.33-7.75 186.48-8.3L186.48-8.3Q186.53-8.45 186.68-8.97 186.83-9.5 186.83-9.95L186.83-9.95Q186.83-10.55 186.43-10.55L186.43-10.55Q185.78-10.55 185.05-9.75 184.33-8.95 183.65-7.75 182.98-6.55 182.4-5.2 181.83-3.85 181.4-2.75 180.98-1.65 180.83-1.1L180.83-1.1Q180.83-1.05 180.8-1.03 180.78-1 180.78-1L180.78-1 180.83-0.65Q180.68-0.3 180.63-0.03 180.58 0.25 180.13 0.45L180.13 0.45Q180.08 0.45 180.05 0.48 180.03 0.5 179.93 0.5Z" opacity="1" transform="matrix(1,0,0,1,0,0)" fill="black" class="wordmark-text-0" id="SvgjsPath3238" stroke-width="5" stroke="black" stroke-linejoin="round"></path></svg></g></svg></g><g transform="matrix(1,0,0,1,2.5,116.54164881684898)"><svg viewBox="0 0 390.52 24.454740148423415" height="24.454740148423415" width="390.52"><g transform="matrix(1,0,0,1,0,0)"><svg width="390.52" viewBox="-0.18999999999999995 -40.45 883.8900000000001 56.290000000000006" height="24.454740148423415" data-palette-color="#ff6699"><path d="M35.96-9.5L35.96-9.5Q35.96-7.18 35.06-5.43 34.16-3.69 32.65-2.42 31.15-1.15 29.17-0.33 27.2 0.49 25.06 0.98 22.92 1.46 20.76 1.66 18.6 1.86 16.7 1.86L16.7 1.86Q14.31 1.86 12.32 1.72 10.33 1.59 8.64 1.33 6.96 1.07 5.53 0.7 4.1 0.32 2.81-0.15L2.81-0.15Q3.03-4.64 3.16-8.86 3.3-13.09 3.3-17.36L3.3-17.36Q3.3-21.61 3.16-25.94 3.03-30.27 2.81-34.96L2.81-34.96Q6.15-35.72 9.58-36.16 13.01-36.6 16.65-36.6L16.65-36.6Q18.14-36.6 20-36.44 21.85-36.28 23.75-35.85 25.66-35.42 27.48-34.69 29.3-33.96 30.71-32.81 32.13-31.67 32.98-30.08 33.84-28.49 33.84-26.34L33.84-26.34Q33.84-26.29 33.81-25.92 33.79-25.54 33.63-24.93 33.47-24.32 33.17-23.55 32.86-22.78 32.3-21.96 31.74-21.14 30.88-20.35 30.03-19.56 28.81-18.9L28.81-18.9Q30.52-18.24 31.71-17.37 32.91-16.5 33.7-15.54 34.5-14.58 34.95-13.61 35.4-12.65 35.62-11.82 35.84-10.99 35.9-10.38 35.96-9.77 35.96-9.5ZM25.24-4.1L25.24-4.1Q25.37-5.4 25.43-6.73 25.49-8.06 25.49-9.45L25.49-9.45Q25.49-10.77 25.43-12.07 25.37-13.38 25.24-14.7L25.24-14.7Q24.22-15.09 22.86-15.37 21.51-15.65 20.03-15.82 18.55-15.99 17.07-16.08 15.58-16.16 14.31-16.16L14.31-16.16 13.26-16.16Q13.06-14.72 12.95-13.26 12.84-11.79 12.84-10.25L12.84-10.25Q12.84-8.59 12.95-6.93 13.06-5.27 13.26-3.66L13.26-3.66Q14.36-3.66 15.86-3.67 17.36-3.69 18.98-3.72 20.61-3.76 22.23-3.85 23.85-3.93 25.24-4.1ZM23.24-20.9L23.24-20.9Q23.41-22 23.49-23.23 23.56-24.46 23.56-25.76L23.56-25.76Q23.56-27.1 23.47-28.45 23.39-29.81 23.19-31.1L23.19-31.1Q22.22-31.18 20.86-31.24 19.51-31.3 18.04-31.3L18.04-31.3Q16.72-31.3 15.48-31.26 14.23-31.23 13.26-31.1L13.26-31.1Q13.11-29.96 13.02-28.75 12.94-27.54 12.94-26.25L12.94-26.25Q12.94-24.88 13.02-23.52 13.11-22.17 13.26-20.8L13.26-20.8Q13.72-20.8 14.4-20.8 15.09-20.8 15.87-20.81 16.65-20.83 17.5-20.84 18.36-20.85 19.19-20.85L19.19-20.85Q21.09-20.87 23.24-20.9ZM64.84-15.5L64.84-15.5Q64.84-13.4 64.63-11.39 64.43-9.38 63.9-7.56 63.38-5.74 62.46-4.16 61.55-2.59 60.15-1.39 58.76-0.2 56.81 0.57 54.86 1.34 52.24 1.54L52.24 1.54Q45.53 1.54 42.16-1.86 38.79-5.25 38.79-11.89L38.79-11.89Q38.79-12.06 38.79-12.81 38.79-13.55 38.82-14.66 38.84-15.77 38.88-17.15 38.91-18.53 39.01-19.97 39.11-21.41 39.24-22.8 39.38-24.19 39.6-25.34L39.6-25.34 48.14-25.34Q47.68-22.92 47.46-20.24 47.24-17.55 47.24-14.75L47.24-14.75Q47.24-12.16 47.45-9.61 47.65-7.06 48.14-4.76L48.14-4.76Q49.05-4.64 49.91-4.57 50.78-4.49 51.63-4.49L51.63-4.49Q52.46-4.49 53.35-4.57 54.25-4.64 55.1-4.76L55.1-4.76Q55.37-7.06 55.5-9.58 55.64-12.11 55.64-14.7L55.64-14.7Q55.64-17.53 55.5-20.23 55.37-22.92 55.1-25.34L55.1-25.34 63.94-25.34Q64.48-22.49 64.66-19.95 64.84-17.41 64.84-15.5ZM68.45-25.49L77.75-25.49Q77.22-20.04 77.03-14.75 76.85-9.45 76.85-4.15L76.85-4.15Q76.85-3.22 76.85-2.28 76.85-1.34 76.9-0.39L76.9-0.39 69.36-0.39Q69.36-1.9 69.38-3.39 69.4-4.88 69.4-6.35L69.4-6.35Q69.4-11.21 69.17-15.97 68.94-20.73 68.45-25.49L68.45-25.49ZM77.75-33.4L77.75-33.4Q77.75-32.54 77.34-31.8 76.92-31.05 76.19-30.51 75.46-29.96 74.48-29.63 73.51-29.3 72.41-29.3L72.41-29.3Q71.31-29.3 70.36-29.63 69.4-29.96 68.7-30.51 67.99-31.05 67.57-31.8 67.16-32.54 67.16-33.4L67.16-33.4Q67.16-34.23 67.57-34.97 67.99-35.72 68.7-36.27 69.4-36.82 70.36-37.13 71.31-37.45 72.41-37.45L72.41-37.45Q73.51-37.45 74.48-37.13 75.46-36.82 76.19-36.27 76.92-35.72 77.34-34.97 77.75-34.23 77.75-33.4ZM82.34-36.79L91.01-36.79Q90.37-27.61 90.17-18.52 89.96-9.42 89.96-0.39L89.96-0.39 82.34-0.39Q82.46-4.88 82.51-9.3 82.56-13.72 82.56-18.19L82.56-18.19Q82.56-22.88 82.51-27.49 82.46-32.1 82.34-36.79L82.34-36.79ZM114.25-35.84L123.43-35.3Q122.87-26.56 122.62-17.59 122.38-8.62 122.38 0.24L122.38 0.24 114.25 0.24 114.39-2.49Q113.22-1.37 111.81-0.76 110.39-0.15 109.12 0.12L109.12 0.12Q107.63 0.44 106.14 0.49L106.14 0.49Q103.36 0.49 101.13-0.51 98.89-1.51 97.34-3.32 95.79-5.13 94.96-7.67 94.13-10.21 94.13-13.26L94.13-13.26Q94.13-15.28 94.62-17.02 95.11-18.75 95.96-20.17 96.82-21.58 97.96-22.66 99.11-23.73 100.41-24.46 101.7-25.2 103.09-25.57 104.48-25.95 105.85-25.95L105.85-25.95Q107.53-25.9 109.15-25.51L109.15-25.51Q109.83-25.34 110.56-25.09 111.29-24.83 112.01-24.46 112.73-24.1 113.41-23.61 114.08-23.12 114.64-22.46L114.64-22.46Q114.57-25.85 114.47-29.19 114.37-32.52 114.25-35.84L114.25-35.84ZM111.44-5.91L111.44-5.91Q112.12-5.91 112.89-5.91 113.66-5.91 114.49-5.96L114.49-5.96Q114.61-8.47 114.65-11.02 114.69-13.57 114.69-16.16L114.69-16.16 114.69-19.14Q112.86-19.34 111.31-19.47 109.76-19.6 108-19.6L108-19.6Q107.07-19.6 106.08-19.57 105.09-19.53 103.9-19.46L103.9-19.46Q103.58-17.26 103.43-15.09 103.29-12.92 103.29-10.69L103.29-10.69Q103.29-9.59 103.3-8.52 103.31-7.45 103.43-6.35L103.43-6.35Q104.65-6.23 105.69-6.15 106.73-6.08 107.69-6.02 108.66-5.96 109.57-5.93 110.49-5.91 111.44-5.91ZM142.22-25.49L151.52-25.49Q150.99-20.04 150.8-14.75 150.62-9.45 150.62-4.15L150.62-4.15Q150.62-3.22 150.62-2.28 150.62-1.34 150.67-0.39L150.67-0.39 143.12-0.39Q143.12-1.9 143.15-3.39 143.17-4.88 143.17-6.35L143.17-6.35Q143.17-11.21 142.94-15.97 142.71-20.73 142.22-25.49L142.22-25.49ZM151.52-33.4L151.52-33.4Q151.52-32.54 151.11-31.8 150.69-31.05 149.96-30.51 149.23-29.96 148.25-29.63 147.28-29.3 146.18-29.3L146.18-29.3Q145.08-29.3 144.13-29.63 143.17-29.96 142.47-30.51 141.76-31.05 141.34-31.8 140.93-32.54 140.93-33.4L140.93-33.4Q140.93-34.23 141.34-34.97 141.76-35.72 142.47-36.27 143.17-36.82 144.13-37.13 145.08-37.45 146.18-37.45L146.18-37.45Q147.28-37.45 148.25-37.13 149.23-36.82 149.96-36.27 150.69-35.72 151.11-34.97 151.52-34.23 151.52-33.4ZM179.01-25.95L179.01-18.6Q176.64-18.73 174.26-18.82 171.88-18.92 169.51-18.99L169.51-18.99Q169.22-14.14 169-9.3 168.78-4.47 168.66 0.44L168.66 0.44 161.53 1.15Q161.68-7.79 161.68-16.55L161.68-16.55 161.68-19.14 159.92-19.14Q158.45-19.14 156.99-19.12 155.52-19.09 154.06-19.09L154.06-19.09 154.06-25.29Q154.69-25.29 155.34-25.27 155.99-25.24 156.67-25.24L156.67-25.24 161.63-25.24Q161.63-27.51 161.6-29.72 161.58-31.93 161.53-34.16L161.53-34.16 170.78-34.16Q170.54-31.96 170.36-29.8 170.17-27.64 170.03-25.49L170.03-25.49Q172.3-25.59 174.51-25.7 176.72-25.81 179.01-25.95L179.01-25.95ZM219.53-5.76L219.53-5.76Q219.68-7.23 219.8-8.98 219.92-10.74 220-12.57 220.07-14.4 220.11-16.17 220.14-17.94 220.14-19.41L220.14-19.41Q220.14-22.22 220-25.26 219.85-28.3 219.53-31.1L219.53-31.1Q219.17-31.13 218.65-31.15 218.14-31.18 217.59-31.19 217.04-31.2 216.53-31.2 216.02-31.2 215.65-31.2L215.65-31.2Q214.55-31.2 213.32-31.15 212.09-31.1 210.82-30.99 209.55-30.88 208.31-30.73 207.08-30.57 205.98-30.35L205.98-30.35Q205.98-29.81 205.97-28.97 205.96-28.13 205.96-27.23 205.96-26.34 205.95-25.52 205.93-24.71 205.93-24.19L205.93-24.19Q205.93-19.63 206.24-14.92 206.54-10.21 207.16-5.76L207.16-5.76Q207.77-5.66 208.53-5.59 209.3-5.52 210.11-5.48 210.92-5.44 211.7-5.42 212.48-5.4 213.09-5.4L213.09-5.4Q213.77-5.4 214.6-5.42 215.43-5.44 216.29-5.48 217.14-5.52 217.98-5.59 218.83-5.66 219.53-5.76ZM231.45-17.65L231.45-17.65Q231.45-13.65 230.1-10.21 228.76-6.76 226.3-4.24 223.83-1.71 220.38-0.26 216.92 1.2 212.7 1.2L212.7 1.2Q210.87 1.2 208.89 0.77 206.91 0.34 205.01-0.62 203.1-1.59 201.38-3.13 199.66-4.66 198.37-6.88 197.07-9.11 196.3-12.06 195.53-15.01 195.53-18.8L195.53-18.8Q195.53-22.51 196.4-25.29 197.27-28.08 198.68-30.07 200.1-32.06 201.94-33.35 203.79-34.64 205.74-35.4 207.69-36.16 209.6-36.45 211.5-36.74 213.09-36.74L213.09-36.74Q215.55-36.74 217.86-36.29 220.17-35.84 222.19-34.88 224.22-33.91 225.91-32.4 227.59-30.88 228.81-28.76 230.03-26.64 230.73-23.88 231.42-21.12 231.45-17.65ZM261.74-12.74L261.74-12.74Q261.74-9.5 261.4-6.13 261.06-2.76 260.23 0.61L260.23 0.61 251.73 0.61Q252.05-3.03 252.22-6.58 252.39-10.13 252.39-13.75L252.39-13.75Q252.39-14.97 252.39-16.17 252.39-17.38 252.34-18.6L252.34-18.6Q251.24-18.73 250.17-18.76 249.1-18.8 248-18.8L248-18.8Q245.92-18.8 243.73-18.65L243.73-18.65Q243.65-16.65 243.62-14.94 243.58-13.23 243.58-11.55L243.58-11.55Q243.58-10.3 243.6-9.02 243.63-7.74 243.69-6.27 243.75-4.81 243.85-3.11 243.94-1.42 244.09 0.61L244.09 0.61 235.89 0.61Q235.89-2.32 235.86-4.57 235.84-6.81 235.79-8.7 235.74-10.6 235.66-12.32 235.57-14.04 235.45-15.93 235.33-17.82 235.18-20.06 235.03-22.29 234.84-25.2L234.84-25.2 244.09-25.76 243.9-22.29Q245.29-23.27 246.75-23.8 248.22-24.34 249.44-24.61L249.44-24.61Q250.85-24.9 252.2-24.95L252.2-24.95Q253.98-24.95 255.38-24.46 256.79-23.97 257.85-23.11 258.91-22.24 259.64-21.07 260.38-19.9 260.85-18.54 261.33-17.19 261.54-15.7 261.74-14.21 261.74-12.74ZM292.6-16.21L282.83-16.21Q282.96-16.8 283-17.4 283.05-17.99 283.05-18.6L283.05-18.6Q283.05-19.17 283-19.7 282.96-20.24 282.83-20.8L282.83-20.8Q281.78-21 280.71-21.07 279.64-21.14 278.49-21.14L278.49-21.14Q277.37-21.14 276.22-21.07 275.07-21 273.9-20.8L273.9-20.8Q273.78-19.48 273.72-18.21 273.65-16.94 273.65-15.65L273.65-15.65Q273.65-12.67 273.96-9.75 274.26-6.84 274.8-3.91L274.8-3.91Q275.9-3.78 276.91-3.75 277.93-3.71 279-3.71L279-3.71Q280.05-3.71 281.08-3.75 282.1-3.78 283.2-3.91L283.2-3.91Q283.25-4.42 283.27-4.91 283.3-5.4 283.3-5.86L283.3-5.86Q283.3-6.3 283.27-6.74 283.25-7.18 283.2-7.59L283.2-7.59 292.4-7.4Q291.72-5.08 290.44-3.42 289.16-1.76 287.41-0.7 285.67 0.37 283.52 0.85 281.37 1.34 279 1.34L279 1.34Q276.1 1.34 273.54 0.56 270.99-0.22 269.1-1.97 267.21-3.71 266.12-6.52 265.04-9.33 265.04-13.4L265.04-13.4Q265.04-16.7 266.18-19.07 267.33-21.44 269.25-22.97 271.16-24.51 273.69-25.23 276.22-25.95 279-25.95L279-25.95Q281.47-25.95 283.69-25.38 285.91-24.8 287.7-23.62 289.5-22.44 290.77-20.59 292.04-18.75 292.6-16.21L292.6-16.21ZM322.8-12.3L322.8-11.45 303.71-9.91Q303.83-8.4 304.05-6.91 304.27-5.42 304.61-3.91L304.61-3.91Q306.76-3.76 308.76-3.76L308.76-3.76Q309.86-3.76 310.88-3.8 311.91-3.83 313.01-3.91L313.01-3.91Q313.06-4.39 313.08-4.88 313.1-5.37 313.1-5.86L313.1-5.86Q313.1-6.3 313.09-6.73 313.08-7.15 313.01-7.59L313.01-7.59 322.21-7.4Q321.53-5.08 320.25-3.42 318.96-1.76 317.22-0.7 315.47 0.37 313.32 0.85 311.18 1.34 308.81 1.34L308.81 1.34Q305.9 1.34 303.35 0.56 300.8-0.22 298.91-1.97 297.02-3.71 295.93-6.52 294.84-9.33 294.84-13.4L294.84-13.4Q294.84-16.7 295.99-19.07 297.14-21.44 299.05-22.97 300.97-24.51 303.5-25.23 306.02-25.95 308.81-25.95L308.81-25.95Q311.71-25.95 314.26-25.17 316.82-24.39 318.71-22.73 320.6-21.07 321.7-18.48 322.8-15.89 322.8-12.3L322.8-12.3ZM303.46-15.04L303.46-15.04 313.25-15.04Q313.25-18.07 312.64-20.8L312.64-20.8Q310.54-21.24 308.25-21.24L308.25-21.24Q306-21.24 303.71-20.8L303.71-20.8Q303.56-19.43 303.51-18.03 303.46-16.63 303.46-15.04ZM336.15-1.49L336.15-1.49Q336.1 0.17 335.65 1.72 335.2 3.27 334.66 4.49L334.66 4.49Q334.03 5.91 333.24 7.15L333.24 7.15 327.99 6.35Q328.78 5.3 329.25 4.25 329.73 3.2 330 2.34L330 2.34Q329.09 2.22 328.32 1.88 327.56 1.54 326.99 1.03 326.43 0.51 326.11-0.12 325.8-0.76 325.8-1.49L325.8-1.49Q325.8-2.32 326.21-3.05 326.63-3.78 327.34-4.32 328.04-4.86 328.98-5.18 329.92-5.49 331-5.49L331-5.49Q332.07-5.49 333.01-5.18 333.95-4.86 334.65-4.32 335.34-3.78 335.75-3.05 336.15-2.32 336.15-1.49ZM383.09-36.6L382.68-29.96Q380.85-30.08 378.82-30.16 376.79-30.25 374.69-30.25L374.69-30.25Q370.64-30.25 366.69-29.96L366.69-29.96Q366.56-27.73 366.5-24.79 366.44-21.85 366.44-18.65L366.44-18.65Q366.88-18.6 367.33-18.63 367.78-18.65 368.27-18.65L368.27-18.65Q370.54-18.65 372.84-18.77 375.13-18.9 377.57-19.19L377.57-19.19Q377.45-18.36 377.42-17.57 377.38-16.77 377.38-15.94L377.38-15.94Q377.38-15.11 377.42-14.29 377.45-13.48 377.57-12.65L377.57-12.65Q375.89-12.87 374.21-12.99 372.52-13.11 370.84-13.11L370.84-13.11Q369.74-13.11 368.64-13.07 367.54-13.04 366.44-12.94L366.44-12.94Q366.44-10.16 366.45-7.69 366.47-5.22 366.52-3.32L366.52-3.32Q366.54-1.1 366.59 0.81L366.59 0.81Q365.15 0.81 363.79 0.83 362.44 0.85 361.08 0.92 359.73 0.98 358.32 1.07 356.92 1.17 355.38 1.34L355.38 1.34Q355.85-2.2 356.13-5.88 356.41-9.57 356.55-13.29 356.7-17.02 356.74-20.7 356.77-24.39 356.77-27.91L356.77-27.91 356.77-36.21Q359-36.08 361.33-36.02 363.66-35.96 366.08-35.96L366.08-35.96Q370.2-35.96 374.44-36.13 378.67-36.3 383.09-36.6L383.09-36.6ZM386.07-36.79L394.74-36.79Q394.1-27.61 393.89-18.52 393.69-9.42 393.69-0.39L393.69-0.39 386.07-0.39Q386.19-4.88 386.24-9.3 386.29-13.72 386.29-18.19L386.29-18.19Q386.29-22.88 386.24-27.49 386.19-32.1 386.07-36.79L386.07-36.79ZM424.62-15.5L424.62-15.5Q424.62-13.4 424.41-11.39 424.2-9.38 423.68-7.56 423.15-5.74 422.24-4.16 421.32-2.59 419.93-1.39 418.54-0.2 416.58 0.57 414.63 1.34 412.02 1.54L412.02 1.54Q405.3 1.54 401.94-1.86 398.57-5.25 398.57-11.89L398.57-11.89Q398.57-12.06 398.57-12.81 398.57-13.55 398.59-14.66 398.61-15.77 398.65-17.15 398.69-18.53 398.79-19.97 398.88-21.41 399.02-22.8 399.15-24.19 399.37-25.34L399.37-25.34 407.92-25.34Q407.45-22.92 407.23-20.24 407.01-17.55 407.01-14.75L407.01-14.75Q407.01-12.16 407.22-9.61 407.43-7.06 407.92-4.76L407.92-4.76Q408.82-4.64 409.69-4.57 410.55-4.49 411.41-4.49L411.41-4.49Q412.24-4.49 413.13-4.57 414.02-4.64 414.87-4.76L414.87-4.76Q415.14-7.06 415.28-9.58 415.41-12.11 415.41-14.7L415.41-14.7Q415.41-17.53 415.28-20.23 415.14-22.92 414.87-25.34L414.87-25.34 423.71-25.34Q424.25-22.49 424.43-19.95 424.62-17.41 424.62-15.5ZM451.66-25.95L451.66-18.6Q449.3-18.73 446.92-18.82 444.54-18.92 442.17-18.99L442.17-18.99Q441.87-14.14 441.65-9.3 441.43-4.47 441.31 0.44L441.31 0.44 434.18 1.15Q434.33-7.79 434.33-16.55L434.33-16.55 434.33-19.14 432.57-19.14Q431.11-19.14 429.64-19.12 428.18-19.09 426.71-19.09L426.71-19.09 426.71-25.29Q427.35-25.29 427.99-25.27 428.64-25.24 429.33-25.24L429.33-25.24 434.28-25.24Q434.28-27.51 434.26-29.72 434.23-31.93 434.18-34.16L434.18-34.16 443.44-34.16Q443.19-31.96 443.01-29.8 442.83-27.64 442.68-25.49L442.68-25.49Q444.95-25.59 447.16-25.7 449.37-25.81 451.66-25.95L451.66-25.95ZM477.66-25.95L477.66-18.6Q475.29-18.73 472.91-18.82 470.53-18.92 468.17-18.99L468.17-18.99Q467.87-14.14 467.65-9.3 467.43-4.47 467.31 0.44L467.31 0.44 460.18 1.15Q460.33-7.79 460.33-16.55L460.33-16.55 460.33-19.14 458.57-19.14Q457.11-19.14 455.64-19.12 454.18-19.09 452.71-19.09L452.71-19.09 452.71-25.29Q453.35-25.29 453.99-25.27 454.64-25.24 455.32-25.24L455.32-25.24 460.28-25.24Q460.28-27.51 460.26-29.72 460.23-31.93 460.18-34.16L460.18-34.16 469.43-34.16Q469.19-31.96 469.01-29.8 468.82-27.64 468.68-25.49L468.68-25.49Q470.95-25.59 473.16-25.7 475.37-25.81 477.66-25.95L477.66-25.95ZM507.52-12.3L507.52-11.45 488.43-9.91Q488.55-8.4 488.77-6.91 488.99-5.42 489.33-3.91L489.33-3.91Q491.48-3.76 493.48-3.76L493.48-3.76Q494.58-3.76 495.6-3.8 496.63-3.83 497.73-3.91L497.73-3.91Q497.78-4.39 497.8-4.88 497.83-5.37 497.83-5.86L497.83-5.86Q497.83-6.3 497.81-6.73 497.8-7.15 497.73-7.59L497.73-7.59 506.93-7.4Q506.25-5.08 504.97-3.42 503.69-1.76 501.94-0.7 500.19 0.37 498.05 0.85 495.9 1.34 493.53 1.34L493.53 1.34Q490.62 1.34 488.07 0.56 485.52-0.22 483.63-1.97 481.74-3.71 480.65-6.52 479.56-9.33 479.56-13.4L479.56-13.4Q479.56-16.7 480.71-19.07 481.86-21.44 483.78-22.97 485.69-24.51 488.22-25.23 490.75-25.95 493.53-25.95L493.53-25.95Q496.43-25.95 498.99-25.17 501.54-24.39 503.43-22.73 505.32-21.07 506.42-18.48 507.52-15.89 507.52-12.3L507.52-12.3ZM488.18-15.04L488.18-15.04 497.97-15.04Q497.97-18.07 497.36-20.8L497.36-20.8Q495.26-21.24 492.97-21.24L492.97-21.24Q490.72-21.24 488.43-20.8L488.43-20.8Q488.28-19.43 488.23-18.03 488.18-16.63 488.18-15.04ZM538.01-12.4L529.22-11.69Q529.27-12.3 529.32-12.9 529.37-13.5 529.37-14.11L529.37-14.11Q529.37-16.21 528.93-18.26L528.93-18.26Q526.66-18.16 524.42-17.94 522.19-17.72 519.92-17.36L519.92-17.36 519.92-12.5Q519.92-9.3 519.92-6.16 519.92-3.03 519.97 0.15L519.97 0.15 511.28 0.76Q511.35-0.15 511.36-1.03 511.37-1.9 511.37-2.81L511.37-2.81Q511.37-8.47 511.17-14.01 510.96-19.56 510.57-25.15L510.57-25.15 519.97-25.95Q519.97-25.27 519.94-24.6 519.92-23.93 519.92-23.24L519.92-23.24Q521.33-24.27 522.76-24.8 524.19-25.34 525.36-25.61L525.36-25.61Q526.71-25.9 527.97-25.95L527.97-25.95Q530.86-25.81 533.13-24.63L533.13-24.63Q534.08-24.15 535.01-23.38 535.93-22.61 536.67-21.5 537.4-20.39 537.84-18.88 538.28-17.38 538.28-15.41L538.28-15.41Q538.28-14.72 538.2-13.98 538.13-13.23 538.01-12.4L538.01-12.4ZM579.29-15.41L579.29-15.41Q577.7-15.53 576.11-15.59 574.53-15.65 572.94-15.65L572.94-15.65Q571.4-15.65 569.86-15.59 568.33-15.53 566.74-15.41L566.74-15.41 566.74-11.3Q566.74-9.84 566.76-8.48 566.79-7.13 566.84-5.96L566.84-5.96Q568.42-6.01 570.22-6.01 572.01-6.01 573.84-6.01L573.84-6.01Q575.67-6.01 577.36-5.99 579.04-5.98 580.36-5.98L580.36-5.98Q581.88-5.96 583.24-5.96L583.24-5.96Q583.22-5.62 583.19-5.2L583.19-5.2Q583.17-4.86 583.16-4.37 583.15-3.88 583.15-3.3L583.15-3.3Q583.15-2.54 583.18-1.66 583.22-0.78 583.29 0.15L583.29 0.15Q582.34 0.1 581.35 0.1 580.36 0.1 579.43 0.1L579.43 0.1Q573.6 0.1 567.87 0.28 562.15 0.46 556.34 0.85L556.34 0.85Q556.34 0.12 556.36-1.2 556.39-2.51 556.42-4.28 556.46-6.05 556.52-8.17 556.58-10.28 556.63-12.57 556.68-14.87 556.74-17.26 556.8-19.65 556.84-21.98 556.88-24.32 556.9-26.48 556.92-28.64 556.92-30.49L556.92-30.49Q556.92-32.28 556.91-33.65 556.9-35.03 556.83-35.96L556.83-35.96Q559.34-35.96 561.86-35.93 564.37-35.89 566.93-35.89L566.93-35.89Q570.79-35.89 574.67-36.01 578.56-36.13 582.63-36.55L582.63-36.55Q582.51-35.72 582.47-34.95 582.44-34.18 582.44-33.5L582.44-33.5Q582.44-32.84 582.46-32.29 582.49-31.74 582.54-31.35L582.54-31.35Q582.58-30.91 582.63-30.54L582.63-30.54Q579.78-30.4 576.99-30.3L576.99-30.3Q575.8-30.25 574.52-30.21 573.23-30.18 571.95-30.14 570.67-30.1 569.46-30.08 568.25-30.05 567.23-30.05L567.23-30.05Q567.18-28.88 567.11-27.51L567.11-27.51Q567.06-26.34 567-24.76 566.93-23.17 566.89-21.34L566.89-21.34Q569.86-21.39 572.9-21.53 575.94-21.68 579.29-21.95L579.29-21.95Q579.21-21.02 579.15-20.08 579.09-19.14 579.09-18.14L579.09-18.14Q579.09-17.48 579.13-16.8 579.17-16.11 579.29-15.41ZM604.46-26.76L613.9-26.76Q608.63-13.84 605.24-0.76L605.24-0.76 591.59 0.39Q590.81-2.76 590.08-5.9 589.34-9.03 588.55-12.17 587.76-15.31 586.88-18.42 586-21.53 584.9-24.66L584.9-24.66 594.15-24.66Q594.98-19.43 596.16-14.34 597.33-9.25 598.94-4.2L598.94-4.2Q600.75-9.81 602.09-15.44 603.43-21.07 604.46-26.76L604.46-26.76ZM642.54-12.3L642.54-11.45 623.45-9.91Q623.57-8.4 623.79-6.91 624.01-5.42 624.35-3.91L624.35-3.91Q626.5-3.76 628.5-3.76L628.5-3.76Q629.6-3.76 630.63-3.8 631.65-3.83 632.75-3.91L632.75-3.91Q632.8-4.39 632.82-4.88 632.85-5.37 632.85-5.86L632.85-5.86Q632.85-6.3 632.84-6.73 632.82-7.15 632.75-7.59L632.75-7.59 641.95-7.4Q641.27-5.08 639.99-3.42 638.71-1.76 636.96-0.7 635.22 0.37 633.07 0.85 630.92 1.34 628.55 1.34L628.55 1.34Q625.65 1.34 623.09 0.56 620.54-0.22 618.65-1.97 616.76-3.71 615.67-6.52 614.59-9.33 614.59-13.4L614.59-13.4Q614.59-16.7 615.73-19.07 616.88-21.44 618.8-22.97 620.71-24.51 623.24-25.23 625.77-25.95 628.55-25.95L628.55-25.95Q631.46-25.95 634.01-25.17 636.56-24.39 638.45-22.73 640.34-21.07 641.44-18.48 642.54-15.89 642.54-12.3L642.54-12.3ZM623.2-15.04L623.2-15.04 632.99-15.04Q632.99-18.07 632.38-20.8L632.38-20.8Q630.28-21.24 627.99-21.24L627.99-21.24Q625.74-21.24 623.45-20.8L623.45-20.8Q623.3-19.43 623.25-18.03 623.2-16.63 623.2-15.04ZM673.03-12.4L664.24-11.69Q664.29-12.3 664.34-12.9 664.39-13.5 664.39-14.11L664.39-14.11Q664.39-16.21 663.95-18.26L663.95-18.26Q661.68-18.16 659.44-17.94 657.21-17.72 654.94-17.36L654.94-17.36 654.94-12.5Q654.94-9.3 654.94-6.16 654.94-3.03 654.99 0.15L654.99 0.15 646.3 0.76Q646.37-0.15 646.38-1.03 646.39-1.9 646.39-2.81L646.39-2.81Q646.39-8.47 646.19-14.01 645.98-19.56 645.59-25.15L645.59-25.15 654.99-25.95Q654.99-25.27 654.96-24.6 654.94-23.93 654.94-23.24L654.94-23.24Q656.36-24.27 657.78-24.8 659.21-25.34 660.38-25.61L660.38-25.61Q661.73-25.9 663-25.95L663-25.95Q665.88-25.81 668.15-24.63L668.15-24.63Q669.1-24.15 670.03-23.38 670.96-22.61 671.69-21.5 672.42-20.39 672.86-18.88 673.3-17.38 673.3-15.41L673.3-15.41Q673.3-14.72 673.23-13.98 673.15-13.23 673.03-12.4L673.03-12.4ZM693.02-25.71L703.18-25.29Q703.06-18.9 702.86-14.26 702.67-9.62 702.47-6.52L702.47-6.52Q702.25-2.91 702.03-0.44L702.03-0.44Q701.89 2.51 700.95 4.96 700.01 7.4 698.3 9.16 696.59 10.91 694.15 11.88 691.7 12.84 688.53 12.84L688.53 12.84Q686.41 12.84 684.82 12.59 683.23 12.33 682.05 11.83 680.87 11.33 680.02 10.6 679.18 9.86 678.55 8.9 677.91 7.93 677.43 6.74 676.96 5.54 676.52 4.15L676.52 4.15 685.48 3.96Q685.48 4.3 685.45 4.6 685.43 4.91 685.43 5.2L685.43 5.2Q685.43 7.03 685.72 8.74L685.72 8.74Q686.68 8.86 687.38 8.94 688.09 9.01 688.78 9.01L688.78 9.01Q689.7 9.01 690.68 8.89 691.66 8.76 693.02 8.54L693.02 8.54Q693.27 5.98 693.44 3.45 693.61 0.93 693.73-1.61L693.73-1.61Q692.71-1.17 691.77-0.94 690.83-0.71 690.12-0.59L690.12-0.59Q689.29-0.46 688.53-0.44L688.53-0.44Q684.99-0.44 682.7-1.33 680.4-2.22 679-3.85 677.59-5.47 676.95-7.75 676.3-10.03 676.06-12.79 675.81-15.55 675.81-18.71 675.81-21.88 675.74-25.29L675.74-25.29 685.72-24.61Q685.53-22.31 685.41-20.04 685.28-17.77 685.28-15.5L685.28-15.5Q685.28-13.16 685.41-10.85 685.53-8.54 685.72-6.25L685.72-6.25Q686.63-6.18 687.41-6.16 688.19-6.15 688.97-6.15L688.97-6.15Q690.26-6.15 691.47-6.19 692.68-6.23 693.88-6.35L693.88-6.35Q693.93-7.13 693.93-7.95 693.93-8.76 693.93-9.55L693.93-9.55Q693.93-13.62 693.72-17.65 693.51-21.68 693.02-25.71L693.02-25.71ZM740.92-26.1L747.17-26.1 742.53 0.39 730.23 0.39 727.08-17.7 722.17-0.56 710.87-0.56 706.18-25.61 716.21-25.61 719.68-6.96 725.08-25.1 733.77-25.1 737.82-5.44 740.92-26.1ZM776.73-13.75L776.73-13.75Q776.73-10.5 776.39-7.13 776.05-3.76 775.22-0.39L775.22-0.39 766.72-0.39Q767.02-4.03 767.2-7.58 767.38-11.13 767.38-14.75L767.38-14.75Q767.38-15.97 767.38-17.18 767.38-18.38 767.33-19.6L767.33-19.6Q766.24-19.73 765.15-19.76 764.06-19.8 762.96-19.8L762.96-19.8Q760.77-19.8 758.57-19.65L758.57-19.65 758.57-16.5Q758.57-12.48 758.69-8.48 758.81-4.49 759.08-0.39L759.08-0.39 750.88-0.39Q750.88-9.23 750.64-17.9 750.39-26.56 749.83-35.3L749.83-35.3 759.08-35.84Q758.91-32.64 758.79-29.47 758.67-26.29 758.62-23.1L758.62-23.1Q760.03-24.17 761.55-24.74 763.06-25.32 764.31-25.59L764.31-25.59Q765.77-25.9 767.16-25.95L767.16-25.95Q768.95-25.95 770.35-25.46 771.75-24.98 772.82-24.11 773.88-23.24 774.62-22.07 775.37-20.9 775.84-19.54 776.32-18.19 776.53-16.7 776.73-15.21 776.73-13.75ZM807.91-12.3L807.91-11.45 788.82-9.91Q788.94-8.4 789.16-6.91 789.38-5.42 789.72-3.91L789.72-3.91Q791.87-3.76 793.87-3.76L793.87-3.76Q794.97-3.76 795.99-3.8 797.02-3.83 798.12-3.91L798.12-3.91Q798.17-4.39 798.19-4.88 798.22-5.37 798.22-5.86L798.22-5.86Q798.22-6.3 798.2-6.73 798.19-7.15 798.12-7.59L798.12-7.59 807.32-7.4Q806.64-5.08 805.36-3.42 804.08-1.76 802.33-0.7 800.58 0.37 798.44 0.85 796.29 1.34 793.92 1.34L793.92 1.34Q791.01 1.34 788.46 0.56 785.91-0.22 784.02-1.97 782.13-3.71 781.04-6.52 779.95-9.33 779.95-13.4L779.95-13.4Q779.95-16.7 781.1-19.07 782.25-21.44 784.17-22.97 786.08-24.51 788.61-25.23 791.14-25.95 793.92-25.95L793.92-25.95Q796.82-25.95 799.38-25.17 801.93-24.39 803.82-22.73 805.71-21.07 806.81-18.48 807.91-15.89 807.91-12.3L807.91-12.3ZM788.57-15.04L788.57-15.04 798.36-15.04Q798.36-18.07 797.75-20.8L797.75-20.8Q795.65-21.24 793.36-21.24L793.36-21.24Q791.11-21.24 788.82-20.8L788.82-20.8Q788.67-19.43 788.62-18.03 788.57-16.63 788.57-15.04ZM838.4-12.4L829.61-11.69Q829.66-12.3 829.71-12.9 829.76-13.5 829.76-14.11L829.76-14.11Q829.76-16.21 829.32-18.26L829.32-18.26Q827.05-18.16 824.81-17.94 822.58-17.72 820.31-17.36L820.31-17.36 820.31-12.5Q820.31-9.3 820.31-6.16 820.31-3.03 820.36 0.15L820.36 0.15 811.67 0.76Q811.74-0.15 811.75-1.03 811.76-1.9 811.76-2.81L811.76-2.81Q811.76-8.47 811.56-14.01 811.35-19.56 810.96-25.15L810.96-25.15 820.36-25.95Q820.36-25.27 820.33-24.6 820.31-23.93 820.31-23.24L820.31-23.24Q821.72-24.27 823.15-24.8 824.58-25.34 825.75-25.61L825.75-25.61Q827.1-25.9 828.36-25.95L828.36-25.95Q831.25-25.81 833.52-24.63L833.52-24.63Q834.47-24.15 835.4-23.38 836.32-22.61 837.06-21.5 837.79-20.39 838.23-18.88 838.67-17.38 838.67-15.41L838.67-15.41Q838.67-14.72 838.59-13.98 838.52-13.23 838.4-12.4L838.4-12.4ZM868.6-12.3L868.6-11.45 849.5-9.91Q849.63-8.4 849.85-6.91 850.07-5.42 850.41-3.91L850.41-3.91Q852.56-3.76 854.56-3.76L854.56-3.76Q855.66-3.76 856.68-3.8 857.71-3.83 858.81-3.91L858.81-3.91Q858.86-4.39 858.88-4.88 858.9-5.37 858.9-5.86L858.9-5.86Q858.9-6.3 858.89-6.73 858.88-7.15 858.81-7.59L858.81-7.59 868.01-7.4Q867.33-5.08 866.05-3.42 864.76-1.76 863.02-0.7 861.27 0.37 859.12 0.85 856.98 1.34 854.61 1.34L854.61 1.34Q851.7 1.34 849.15 0.56 846.6-0.22 844.71-1.97 842.82-3.71 841.73-6.52 840.64-9.33 840.64-13.4L840.64-13.4Q840.64-16.7 841.79-19.07 842.94-21.44 844.85-22.97 846.77-24.51 849.3-25.23 851.82-25.95 854.61-25.95L854.61-25.95Q857.51-25.95 860.06-25.17 862.62-24.39 864.51-22.73 866.4-21.07 867.5-18.48 868.6-15.89 868.6-12.3L868.6-12.3ZM849.26-15.04L849.26-15.04 859.05-15.04Q859.05-18.07 858.44-20.8L858.44-20.8Q856.34-21.24 854.05-21.24L854.05-21.24Q851.8-21.24 849.5-20.8L849.5-20.8Q849.36-19.43 849.31-18.03 849.26-16.63 849.26-15.04ZM880.7-1.49L880.7-1.49Q880.7-0.78 880.35-0.16 880 0.46 879.37 0.94 878.75 1.42 877.93 1.68 877.11 1.95 876.19 1.95L876.19 1.95Q875.23 1.95 874.4 1.68 873.57 1.42 872.96 0.94 872.35 0.46 872-0.16 871.65-0.78 871.65-1.49L871.65-1.49Q871.65-2.22 872-2.86 872.35-3.49 872.96-3.97 873.57-4.44 874.4-4.72 875.23-5 876.19-5L876.19-5Q877.11-5 877.93-4.72 878.75-4.44 879.37-3.97 880-3.49 880.35-2.86 880.7-2.22 880.7-1.49Z" opacity="1" transform="matrix(1,0,0,1,0,0)" fill="black" class="slogan-text-1" id="SvgjsPath3237" stroke-width="5" stroke="black" stroke-linejoin="round"></path></svg></g></svg></g></svg></g></svg></g></svg></g></svg></g></svg></g></mask><g mask="url(#d6a1def4-9732-46ec-8ff5-ca1cc7c91c0a)"><g><path d="M147.999 244.465v0c-15.272 0-25.917-4.673-31.934-14.019-6.063-9.345-9.095-21.312-9.095-35.9v0c0-8.434 0.798-17.392 2.393-26.874 1.596-9.437 3.875-19.056 6.839-28.857v0c-8.434 1.14-16.001 2.553-22.703 4.24-6.747 1.732-11.83 3.51-15.249 5.333v0c-1.368 0.684-2.279 1.026-2.736 1.026v0c-1.824 0-2.165-1.596-1.025-4.787 1.14-3.191 2.507-5.471 4.103-6.838v0c3.191-1.596 8.388-3.077 15.591-4.445 7.157-1.368 15.409-2.507 24.754-3.419v0c3.875-12.309 8.32-24.276 13.334-35.9 5.015-11.625 10.143-22.338 15.386-32.14 5.243-9.801 10.326-17.962 15.249-24.48 4.878-6.473 9.026-10.736 12.446-12.788v0c0.456-0.456 1.026-0.684 1.709-0.683 0.684 0 1.254 0 1.71 0v0c2.279 0 3.419 0.57 3.419 1.709v0c0 0.912-1.026 1.937-3.077 3.077v0c-2.735 1.596-6.2 5.402-10.394 11.42-4.24 6.063-8.639 13.699-13.198 22.908-4.559 9.254-9.118 19.534-13.676 30.84-4.559 11.26-8.548 22.817-11.967 34.67v0c10.029-0.912 20.469-1.596 31.319-2.052 10.804-0.456 21.449-0.684 31.934-0.684v0c7.522 0 14.702 0.114 21.54 0.342 6.838 0.228 13.107 0.57 18.805 1.026v0c1.596-21.426 5.311-41.941 11.147-61.544 5.79-19.603 13.927-35.672 24.412-48.209v0c3.419-4.103 8.046-8.046 13.881-11.83 5.79-3.738 11.762-5.607 17.916-5.607v0c3.875 0 7.522 1.14 10.941 3.419 3.419 2.279 6.496 6.04 9.232 11.283v0c0.456 1.368 0.684 2.279 0.684 2.735v0c0 1.824-0.57 2.735-1.71 2.736v0c-1.14 0-2.279-0.912-3.419-2.736v0c-2.279-5.243-6.154-7.864-11.625-7.864v0c-5.015 0-10.303 1.824-15.864 5.471-5.607 3.647-9.779 7.066-12.514 10.257v0c-10.485 14.36-18.623 30.43-24.412 48.209-5.835 17.779-9.551 36.014-11.147 54.706v0l9.232 1.367c3.419 0.912 6.565 2.211 9.437 3.898 2.826 1.732 4.24 3.054 4.239 3.966v0c0 0.456-0.684 0.684-2.051 0.684v0c-0.456 0-1.14-0.068-2.052-0.205-0.912-0.091-1.937-0.251-3.077-0.479v0c-2.051-0.456-4.445-0.912-7.18-1.367-2.735-0.456-5.698-0.798-8.89-1.026v0c-0.228 2.507-0.342 5.015-0.342 7.522 0 2.507 0 5.015 0 7.522v0c0 15.956 1.322 31.615 3.967 46.978 2.599 15.409 6.177 29.837 10.736 43.286v0c0.684 1.596 1.026 3.077 1.025 4.445v0c0 1.596-0.57 2.393-1.709 2.393v0c-1.368 0-2.849-1.14-4.445-3.419v0c-5.698-11.397-9.961-25.256-12.787-41.576-2.872-16.275-4.308-33.416-4.308-51.423v0c0-2.735 0-5.471 0-8.206 0-2.735 0.114-5.585 0.341-8.548v0c-9.573-0.684-20.173-1.026-31.797-1.026v0c-11.853 0-24.207 0.342-37.063 1.026-12.901 0.684-25.051 1.71-36.447 3.077v0c-2.735 9.801-4.901 19.534-6.497 29.199-1.596 9.71-2.393 18.668-2.393 26.874v0c0 13.22 2.462 24.048 7.385 32.482 4.878 8.434 13.243 12.651 25.096 12.65v0c2.735 0 5.243-0.57 7.522-1.709v0h-0.342c1.596-0.912 2.963-1.368 4.103-1.368v0c0.912 0 1.368 0.342 1.368 1.026v0c0 1.368-1.14 2.849-3.419 4.445v0c-2.051 1.368-4.148 2.348-6.291 2.94-2.188 0.547-4.308 0.821-6.36 0.821z" fill="#ffffff" fill-rule="nonzero" stroke="none" stroke-width="1" stroke-linecap="butt" stroke-linejoin="miter" stroke-miterlimit="10" stroke-dasharray="" stroke-dashoffset="0" font-family="none" font-weight="none" font-size="none" text-anchor="none" style="mix-blend-mode: normal" data-fill-palette-color="tertiary"></path></g></g><g transform="matrix(1,0,0,1,0,53.1018055173638)"><svg viewBox="0 0 395.52 140.9963889652724" height="140.9963889652724" width="395.52"><g><svg viewBox="0 0 395.52 140.9963889652724" height="140.9963889652724" width="395.52"><g><svg viewBox="0 0 395.52 140.9963889652724" height="140.9963889652724" width="395.52"><g><svg viewBox="0 0 395.52 140.9963889652724" height="140.9963889652724" width="395.52"><g id="textblocktransform"><svg viewBox="0 0 395.52 140.9963889652724" height="140.9963889652724" width="395.52" id="textblock"><g><svg viewBox="0 0 395.52 102.96913954805814" height="102.96913954805814" width="395.52"><g transform="matrix(1,0,0,1,0,0)"><svg width="395.52" viewBox="-2.794444222215 -35.05 199.574444222215 52.699999999999996" height="102.96913954805814" data-palette-color="#ffffff"><path d="M11.05 3.7L11.05 3.7Q7.7 3.7 6.38 1.65 5.05-0.4 5.05-3.6L5.05-3.6Q5.05-5.45 5.4-7.53 5.75-9.6 6.4-11.75L6.4-11.75Q4.55-11.5 3.08-11.13 1.6-10.75 0.85-10.35L0.85-10.35Q0.55-10.2 0.45-10.2L0.45-10.2Q0.05-10.2 0.3-10.9 0.55-11.6 0.9-11.9L0.9-11.9Q1.6-12.25 3.18-12.55 4.75-12.85 6.8-13.05L6.8-13.05Q7.65-15.75 8.75-18.3 9.85-20.85 11-23 12.15-25.15 13.23-26.58 14.3-28 15.05-28.45L15.05-28.45Q15.15-28.55 15.3-28.55 15.45-28.55 15.55-28.55L15.55-28.55Q16.05-28.55 16.05-28.3L16.05-28.3Q16.05-28.1 15.6-27.85L15.6-27.85Q15-27.5 14.08-26.18 13.15-24.85 12.15-22.83 11.15-20.8 10.15-18.32 9.15-15.85 8.4-13.25L8.4-13.25Q10.6-13.45 12.98-13.55 15.35-13.65 17.65-13.65L17.65-13.65Q19.3-13.65 20.8-13.6 22.3-13.55 23.55-13.45L23.55-13.45Q23.9-18.15 25.18-22.45 26.45-26.75 28.75-29.5L28.75-29.5Q29.5-30.4 30.78-31.23 32.05-32.05 33.4-32.05L33.4-32.05Q34.25-32.05 35-31.55 35.75-31.05 36.35-29.9L36.35-29.9Q36.45-29.6 36.45-29.5L36.45-29.5Q36.45-29.1 36.2-29.1L36.2-29.1Q35.95-29.1 35.7-29.5L35.7-29.5Q35.2-30.65 34-30.65L34-30.65Q32.9-30.65 31.68-29.85 30.45-29.05 29.85-28.35L29.85-28.35Q27.55-25.2 26.28-21.3 25-17.4 24.65-13.3L24.65-13.3 26-13.1Q26.75-12.9 27.38-12.53 28-12.15 28-11.95L28-11.95Q28-11.85 27.7-11.85L27.7-11.85Q27.6-11.85 27.4-11.88 27.2-11.9 26.95-11.95L26.95-11.95Q26.5-12.05 25.9-12.15 25.3-12.25 24.6-12.3L24.6-12.3Q24.55-11.75 24.55-11.2 24.55-10.65 24.55-10.1L24.55-10.1Q24.55-6.6 25.13-3.23 25.7 0.15 26.7 3.1L26.7 3.1Q26.85 3.45 26.85 3.75L26.85 3.75Q26.85 4.1 26.6 4.1L26.6 4.1Q26.3 4.1 25.95 3.6L25.95 3.6Q24.7 1.1 24.08-2.48 23.45-6.05 23.45-10L23.45-10Q23.45-10.6 23.45-11.2 23.45-11.8 23.5-12.45L23.5-12.45Q21.4-12.6 18.85-12.6L18.85-12.6Q16.25-12.6 13.43-12.45 10.6-12.3 8.1-12L8.1-12Q7.5-9.85 7.15-7.73 6.8-5.6 6.8-3.8L6.8-3.8Q6.8-0.9 7.88 0.95 8.95 2.8 11.55 2.8L11.55 2.8Q12.15 2.8 12.65 2.55L12.65 2.55 12.6 2.55Q12.95 2.35 13.2 2.35L13.2 2.35Q13.4 2.35 13.4 2.5L13.4 2.5Q13.4 2.8 12.9 3.15L12.9 3.15Q12.45 3.45 11.98 3.58 11.5 3.7 11.05 3.7ZM30.35 2.3L30.35 2.3Q28.6 2.3 27.2 1.53 25.8 0.75 25.8-1.55L25.8-1.55Q25.8-4.1 27.45-5.93 29.1-7.75 31.75-8.95 34.4-10.15 37.42-10.83 40.45-11.5 43.2-11.75L43.2-11.75Q44.65-15.15 45.97-18.75 47.3-22.35 48.1-25.25L48.1-25.25Q48.2-25.55 48.4-25.65L48.4-25.65Q48.6-26.15 48.7-26.15L48.7-26.15Q48.8-26.15 48.85-25.7L48.85-25.7 48.95-25.55Q48.95-25.35 48.85-25.25L48.85-25.25 48.85-25.3Q48.85-25.6 48.85-25.7L48.85-25.7Q48.65-25.85 48.4-25.65L48.4-25.65Q48.1-24.85 47.65-23.1 47.2-21.35 46.65-19.23 46.1-17.1 45.52-15.1 44.95-13.1 44.45-11.85L44.45-11.85Q45.1-11.9 45.75-11.9 46.4-11.9 46.95-11.9L46.95-11.9Q47.35-11.9 48.02-11.88 48.7-11.85 49.5-11.75L49.5-11.75Q49.4-12.9 49.35-14 49.3-15.1 49.3-16.2L49.3-16.2Q49.3-18.7 49.55-21.1 49.8-23.5 50.2-25.3L50.2-25.3Q50.6-27.4 50.95-27.95L50.95-27.95 51.25-27.95Q51.5-27.95 51.97-27.7 52.45-27.45 52.45-27.2L52.45-27.2Q51.95-25.5 51.45-23.1 50.95-20.7 50.8-18.45L50.8-18.45Q50.75-17.65 50.7-16.75 50.65-15.85 50.65-14.95L50.65-14.95Q50.65-14.15 50.67-13.3 50.7-12.45 50.75-11.6L50.75-11.6Q52.35-11.3 53.67-10.63 55-9.95 55-8.55L55-8.55Q55-7.55 54.6-7.55L54.6-7.55Q54.25-7.55 54.25-8.55L54.25-8.55Q54.25-8.95 53.97-9.22 53.7-9.5 53.45-9.6L53.45-9.6Q53.05-9.85 52.37-10.05 51.7-10.25 50.9-10.45L50.9-10.45Q51.15-8.25 51.75-6.13 52.35-4 53.45-2.25L53.45-2.25Q54.05-1.2 54.72-0.7 55.4-0.2 55.9 0.05L55.9 0.05Q55.9 0.05 55.92 0 55.95-0.05 56 0.25L56 0.25Q56.05 0.3 56.05 0.45L56.05 0.45Q56.05 0.65 55.87 0.75 55.7 0.85 55.45 0.65L55.45 0.65 55.5 0.65Q52.9-0.55 51.52-3.7 50.15-6.85 49.65-10.65L49.65-10.65Q48.85-10.8 48.1-10.88 47.35-10.95 46.9-11L46.9-11Q46.25-11 45.55-11 44.85-11 44.1-10.9L44.1-10.9Q43.15-8.6 41.8-6.1 40.45-3.6 38.6-1.53 36.75 0.55 34.25 1.6L34.25 1.6Q33.6 1.85 32.55 2.08 31.5 2.3 30.35 2.3ZM30.3 1.05L30.3 1.05Q31.3 1.05 32.27 0.85 33.25 0.65 33.95 0.35L33.95 0.35Q36.1-0.55 37.7-2.3 39.3-4.05 40.52-6.3 41.75-8.55 42.8-10.85L42.8-10.85Q40.2-10.65 37.4-10.03 34.6-9.4 32.2-8.3 29.8-7.2 28.32-5.55 26.85-3.9 26.85-1.6L26.85-1.6Q26.8-0.1 27.87 0.48 28.95 1.05 30.3 1.05ZM63.35 14.65L63.35 14.65Q60.8 14.65 58.62 13.7 56.45 12.75 55.12 10.75 53.8 8.75 53.8 5.6L53.8 5.6Q53.8 4.4 54.15 4.4L54.15 4.4Q54.55 4.4 54.55 6L54.55 6Q54.55 8.55 56.02 10.18 57.5 11.8 59.8 12.6 62.1 13.4 64.5 13.4L64.5 13.4Q65.95 13.4 67.37 13.13 68.8 12.85 69.9 12.3L69.9 12.3Q73.3 10.65 75.77 6.9 78.25 3.15 78.8-2.4L78.8-2.4Q78.95-3.25 79-4.13 79.05-5 79.05-5.9L79.05-5.9Q79.05-7.95 78.9-9.95L78.9-9.95Q78.84-11 78.82-12.03 78.8-13.05 78.8-14.15L78.8-14.15Q78.8-14.3 78.75-14.28 78.7-14.25 78.7-14.2L78.7-14.2Q77.75-12.35 76.27-10.25 74.8-8.15 72.92-6.13 71.05-4.1 69-2.45 66.95-0.8 64.9 0.2 62.85 1.2 60.95 1.2L60.95 1.2Q59.3 1.2 58.7 0.15 58.1-0.9 58.1-2.15L58.1-2.15Q58.1-2.7 58.22-3.23 58.35-3.75 58.45-4.2L58.45-4.2Q59.05-5.95 60.02-7.85 61-9.75 62.1-11.65L62.1-11.65Q63.35-13.95 64.52-16.3 65.7-18.65 66.47-21.05 67.25-23.45 67.25-25.85L67.25-25.85Q67.25-28.65 65.65-29.9 64.05-31.15 61.4-31.15L61.4-31.15Q60.75-31.15 59.95-30.9 59.15-30.65 58.85-30.4L58.85-30.4Q58.55-30.15 58.25-30.15L58.25-30.15Q58-30.15 58-30.4L58-30.4Q58-30.6 58.3-30.9L58.3-30.9Q58.75-31.3 59.8-31.68 60.85-32.05 62.1-32.05L62.1-32.05Q64.45-32.05 66.37-30.8 68.3-29.55 69-26.95L69-26.95Q69.25-25.85 69.25-24.8L69.25-24.8Q69.25-22.7 68.45-20.43 67.65-18.15 66.42-15.83 65.2-13.5 63.85-11.25L63.85-11.25Q62.65-9.35 61.57-7.33 60.5-5.3 59.9-3.6L59.9-3.6Q59.7-3 59.57-2.45 59.45-1.9 59.45-1.5L59.45-1.5Q59.45-0.4 60.05 0.03 60.65 0.45 61.3 0.45L61.3 0.45Q63 0.45 65.12-0.78 67.25-2 69.42-3.98 71.59-5.95 73.55-8.2 75.5-10.45 76.87-12.55 78.25-14.65 78.75-16.1L78.75-16.1 78.75-16.4Q78.75-17.7 78.95-19.53 79.15-21.35 80.3-23.1L80.3-23.1Q80.5-23.4 80.84-23.68 81.2-23.95 81.5-23.95L81.5-23.95Q81.9-23.95 81.95-23.55L81.95-23.55Q82-23.4 82-23.05L82-23.05Q82-22.35 81.65-21.23 81.3-20.1 80.8-18.95 80.3-17.8 79.8-16.9L79.8-16.9Q79.8-16 79.9-14.48 80-12.95 80.15-11.65L80.15-11.65Q80.34-9.95 80.52-8.03 80.7-6.1 80.7-4.1L80.7-4.1Q80.7-2.25 80.5-0.53 80.3 1.2 79.75 2.8L79.75 2.8Q78.4 6.6 75.75 9.2 73.09 11.8 70.2 13.1L70.2 13.1Q66.8 14.65 63.35 14.65ZM84.54 2.3L84.54 2.3Q82.79 2.3 81.39 1.53 79.99 0.75 79.99-1.55L79.99-1.55Q79.99-4.1 81.64-5.93 83.29-7.75 85.94-8.95 88.59-10.15 91.62-10.83 94.64-11.5 97.39-11.75L97.39-11.75Q98.84-15.15 100.17-18.75 101.49-22.35 102.29-25.25L102.29-25.25Q102.39-25.55 102.59-25.65L102.59-25.65Q102.79-26.15 102.89-26.15L102.89-26.15Q102.99-26.15 103.04-25.7L103.04-25.7 103.14-25.55Q103.14-25.35 103.04-25.25L103.04-25.25 103.04-25.3Q103.04-25.6 103.04-25.7L103.04-25.7Q102.84-25.85 102.59-25.65L102.59-25.65Q102.29-24.85 101.84-23.1 101.39-21.35 100.84-19.23 100.29-17.1 99.72-15.1 99.14-13.1 98.64-11.85L98.64-11.85Q99.29-11.9 99.94-11.9 100.59-11.9 101.14-11.9L101.14-11.9Q101.54-11.9 102.22-11.88 102.89-11.85 103.69-11.75L103.69-11.75Q103.59-12.9 103.54-14 103.49-15.1 103.49-16.2L103.49-16.2Q103.49-18.7 103.74-21.1 103.99-23.5 104.39-25.3L104.39-25.3Q104.79-27.4 105.14-27.95L105.14-27.95 105.44-27.95Q105.69-27.95 106.17-27.7 106.64-27.45 106.64-27.2L106.64-27.2Q106.14-25.5 105.64-23.1 105.14-20.7 104.99-18.45L104.99-18.45Q104.94-17.65 104.89-16.75 104.84-15.85 104.84-14.95L104.84-14.95Q104.84-14.15 104.87-13.3 104.89-12.45 104.94-11.6L104.94-11.6Q106.54-11.3 107.87-10.63 109.19-9.95 109.19-8.55L109.19-8.55Q109.19-7.55 108.79-7.55L108.79-7.55Q108.44-7.55 108.44-8.55L108.44-8.55Q108.44-8.95 108.17-9.22 107.89-9.5 107.64-9.6L107.64-9.6Q107.24-9.85 106.57-10.05 105.89-10.25 105.09-10.45L105.09-10.45Q105.34-8.25 105.94-6.13 106.54-4 107.64-2.25L107.64-2.25Q108.24-1.2 108.92-0.7 109.59-0.2 110.09 0.05L110.09 0.05Q110.09 0.05 110.12 0 110.14-0.05 110.19 0.25L110.19 0.25Q110.24 0.3 110.24 0.45L110.24 0.45Q110.24 0.65 110.07 0.75 109.89 0.85 109.64 0.65L109.64 0.65 109.69 0.65Q107.09-0.55 105.72-3.7 104.34-6.85 103.84-10.65L103.84-10.65Q103.04-10.8 102.29-10.88 101.54-10.95 101.09-11L101.09-11Q100.44-11 99.74-11 99.04-11 98.29-10.9L98.29-10.9Q97.34-8.6 95.99-6.1 94.64-3.6 92.79-1.53 90.94 0.55 88.44 1.6L88.44 1.6Q87.79 1.85 86.74 2.08 85.69 2.3 84.54 2.3ZM84.49 1.05L84.49 1.05Q85.49 1.05 86.47 0.85 87.44 0.65 88.14 0.35L88.14 0.35Q90.29-0.55 91.89-2.3 93.49-4.05 94.72-6.3 95.94-8.55 96.99-10.85L96.99-10.85Q94.39-10.65 91.59-10.03 88.79-9.4 86.39-8.3 83.99-7.2 82.52-5.55 81.04-3.9 81.04-1.6L81.04-1.6Q80.99-0.1 82.07 0.48 83.14 1.05 84.49 1.05ZM114.89 3.85L114.89 3.85Q114.49 4.55 114.09 4.55L114.09 4.55Q113.74 4.55 113.47 4.03 113.19 3.5 113.19 2.9L113.19 2.9Q113.19 2.45 113.34 2.15L113.34 2.15Q114.04 0.6 114.91-1.13 115.79-2.85 116.79-4.55L116.79-4.55Q117.29-6.45 117.52-8.47 117.74-10.5 117.74-12.5L117.74-12.5Q117.74-15.85 116.99-19.23 116.24-22.6 114.49-25.65L114.49-25.65Q114.19-26.25 113.52-26.9 112.84-27.55 112.02-28.03 111.19-28.5 110.44-28.5L110.44-28.5Q110.09-28.5 109.64-28.23 109.19-27.95 108.89-27.55L108.89-27.55Q108.64-27.3 108.54-27.3L108.54-27.3Q108.24-27.3 108.24-27.7L108.24-27.7Q108.24-27.8 108.34-28.1L108.34-28.1Q109.59-29.8 111.09-29.8L111.09-29.8Q112.54-29.8 113.81-28.75 115.09-27.7 115.69-26.7L115.69-26.7Q117.34-24.05 118.06-20.55 118.79-17.05 118.79-13.2L118.79-13.2Q118.79-11.75 118.69-10.25 118.59-8.75 118.39-7.3L118.39-7.3Q119.04-8.7 120.09-10.63 121.14-12.55 122.39-14.63 123.64-16.7 124.99-18.65 126.34-20.6 127.66-22.08 128.99-23.55 130.09-24.2L130.09-24.2 129.99-24.2Q131.29-25 132.54-25L132.54-25Q133.59-25 134.29-24.33 134.99-23.65 134.99-22.2L134.99-22.2Q134.99-22 134.99-21.8 134.99-21.6 134.94-21.35L134.94-21.35Q134.84-20.3 134.19-18.63 133.54-16.95 132.66-15 131.79-13.05 130.94-11.15L130.94-11.15Q129.74-8.55 128.76-6.35 127.79-4.15 127.79-3.35L127.79-3.35Q127.79-3 128.04-3L128.04-3Q129.14-3 130.56-4.03 131.99-5.05 133.51-6.63 135.04-8.2 136.49-9.95 137.94-11.7 139.14-13.2L139.14-13.2 140.19-14.5Q140.44-14.8 141.12-15.38 141.79-15.95 142.29-15.95L142.29-15.95Q142.79-15.95 142.79-15.25L142.79-15.25Q142.79-14.9 142.37-13.93 141.94-12.95 141.29-11.6L141.29-11.6Q140.94-10.85 140.49-9.55 140.04-8.25 139.72-6.73 139.39-5.2 139.39-3.75L139.39-3.75Q139.39-1.9 140.16-0.53 140.94 0.85 143.04 0.85L143.04 0.85Q144.19 0.85 144.99 0.33 145.79-0.2 146.29-0.85L146.29-0.85Q146.64-1.25 146.74-1.5L146.74-1.5Q146.99-2.05 147.14-2.05L147.14-2.05Q147.44-2.05 147.44-1.65L147.44-1.65Q147.44-0.85 146.72-0.08 145.99 0.7 144.94 1.23 143.89 1.75 142.94 1.75L142.94 1.75Q140.89 1.75 139.74 0.93 138.59 0.1 138.14-1.28 137.69-2.65 137.69-4.3L137.69-4.3Q137.69-5.95 138.06-7.73 138.44-9.5 138.79-10.85L138.79-10.85Q138.44-10.5 138.01-10 137.59-9.5 137.04-8.95L137.04-8.95Q135.99-7.8 134.76-6.48 133.54-5.15 132.29-4 131.04-2.85 129.89-2.13 128.74-1.4 127.84-1.4L127.84-1.4Q127.49-1.4 126.79-1.93 126.09-2.45 126.14-2.95L126.14-2.95Q126.34-4.4 127.29-6.58 128.24-8.75 129.34-11.1L129.34-11.1Q130.79-14.05 131.99-16.95 133.19-19.85 133.19-21.9L133.19-21.9Q133.19-22.8 132.87-23.1 132.54-23.4 132.09-23.4L132.09-23.4Q130.74-23.4 129.29-22.25 127.84-21.1 126.44-19.25 125.04-17.4 123.72-15.18 122.39-12.95 121.24-10.8 120.09-8.65 119.24-6.95L119.24-6.95Q118.74-6 118.34-5.2 117.94-4.4 117.69-3.95L117.69-3.95 117.69-4Q117.14-1.55 116.49 0.3 115.84 2.15 114.89 3.85ZM151.39 0.5L151.39 0.5Q151.04 0.5 150.81 0.08 150.59-0.35 150.59-0.6L150.59-0.6Q150.59-0.85 150.79-1.07 150.99-1.3 151.19-1.45L151.19-1.45Q151.44-1.65 151.84-1.88 152.24-2.1 152.59-2.3L152.59-2.3Q152.79-2.45 152.79-2.25L152.79-2.25Q152.79-2.05 152.69-1.68 152.59-1.3 152.54-0.85L152.54-0.85Q152.49 0 152.06 0.23 151.64 0.45 151.39 0.5ZM157.18 0.1L157.18 0.1Q156.28-0.4 155.93-1.35 155.58-2.3 155.58-3.35L155.58-3.35Q155.58-4.15 155.71-4.9 155.83-5.65 156.03-6.25L156.03-6.25Q156.28-7 156.58-7.7 156.88-8.4 157.23-9.1L157.23-9.1Q157.58-9.7 158.16-10.53 158.73-11.35 159.48-11.98 160.23-12.6 161.03-12.6L161.03-12.6Q161.48-12.6 161.88-12.4L161.88-12.4Q162.43-12.15 162.66-11.58 162.88-11 162.88-10.3L162.88-10.3Q162.88-9.5 162.68-8.72 162.48-7.95 162.33-7.4L162.33-7.4Q162.33-7.25 162.23-7.15L162.23-7.15Q162.13-6.95 161.96-6.83 161.78-6.7 161.58-6.8L161.58-6.8Q161.13-7.05 161.13-7.4L161.13-7.4Q161.13-7.7 161.31-8 161.48-8.3 161.48-8.5L161.48-8.5Q161.53-8.75 161.58-9.13 161.63-9.5 161.63-9.9L161.63-9.9Q161.63-10.45 161.48-10.9 161.33-11.35 160.88-11.35L160.88-11.35Q160.38-11.35 159.86-10.73 159.33-10.1 158.91-9.38 158.48-8.65 158.28-8.4L158.28-8.4Q157.98-7.85 157.53-6.88 157.08-5.9 156.76-4.78 156.43-3.65 156.43-2.6L156.43-2.6Q156.43-1.9 156.68-1.33 156.93-0.75 157.48-0.45L157.48-0.45Q157.88-0.2 158.48-0.2L158.48-0.2Q159.03-0.2 159.56-0.38 160.08-0.55 160.53-0.75L160.53-0.75Q160.98-0.95 161.36-1.15 161.73-1.35 162.08-1.55L162.08-1.55Q162.33-1.75 162.63-1.75L162.63-1.75Q162.83-1.75 162.83-1.6L162.83-1.6Q162.83-1.45 162.28-1.1L162.28-1.1Q161.33-0.45 160.33-0.03 159.33 0.4 158.43 0.4L158.43 0.4Q157.78 0.4 157.18 0.1ZM168.03-0.4L168.03-0.4Q166.88-0.4 165.91-0.88 164.93-1.35 164.93-2.65L164.93-2.65Q164.93-3.1 164.98-3.25L164.98-3.25Q164.33-3.9 164.33-4.95L164.33-4.95Q164.33-6.05 164.91-7.28 165.48-8.5 166.18-9.35L166.18-9.35Q167.43-10.8 169.36-11.93 171.28-13.05 173.23-13.05L173.23-13.05Q175.13-13.05 176.33-11.9 177.53-10.75 177.53-8.85L177.53-8.85Q177.53-7.2 176.66-5.68 175.78-4.15 174.36-2.95 172.93-1.75 171.26-1.07 169.58-0.4 168.03-0.4ZM168.03-1L168.03-1Q170.03-1 171.98-2.05 173.93-3.1 175.23-4.88 176.53-6.65 176.53-8.7L176.53-8.7Q176.53-10.3 175.73-11.3 174.93-12.3 173.28-12.3L173.28-12.3Q171.48-12.3 169.73-11.2 167.98-10.1 166.78-8.4 165.58-6.7 165.43-4.9L165.43-4.9Q165.98-6.2 167.63-8.18 169.28-10.15 172.33-11.65L172.33-11.65Q172.38-11.7 172.53-11.7L172.53-11.7Q172.78-11.7 172.93-11.33 173.08-10.95 173.08-10.65L173.08-10.65Q173.08-10.6 172.98-10.38 172.88-10.15 172.73-10.05L172.73-10.05Q172.58-9.95 172.18-9.65 171.78-9.35 171.41-9.08 171.03-8.8 170.93-8.8L170.93-8.8Q170.78-8.8 170.78-8.9L170.78-8.9Q170.78-9.1 170.96-9.35 171.13-9.6 171.18-9.65L171.18-9.65Q170.13-9.05 168.96-8.05 167.78-7.05 166.96-5.83 166.13-4.6 166.03-3.25L166.03-3.25Q166.18-3.15 166.61-2.98 167.03-2.8 167.03-2.7L167.03-2.7Q167.03-2.55 166.83-2.55L166.83-2.55Q166.63-2.55 166.43-2.6 166.23-2.65 166.03-2.7L166.03-2.7Q166.03-1.7 166.53-1.35 167.03-1 168.03-1ZM179.93 0.5L179.93 0.5Q179.48 0.5 179.2 0.15 178.93-0.2 178.88-0.55L178.88-0.55Q178.88-0.95 178.98-1.1L178.98-1.1Q179.28-2.05 179.43-3.4 179.58-4.75 179.58-6.15L179.58-6.15Q179.58-7 179.53-7.75 179.48-8.5 179.38-9.15L179.38-9.15Q179.28-10.2 178.93-11.45 178.58-12.7 177.48-13.4L177.48-13.4Q177.38-13.4 177.35-13.55 177.33-13.7 177.43-13.7L177.43-13.7Q177.63-13.7 177.73-13.6L177.73-13.6Q178.88-12.95 179.6-11.5 180.33-10.05 180.68-8.33 181.03-6.6 181.03-5.05L181.03-5.05Q181.03-4.6 181-4.2 180.98-3.8 180.93-3.4L180.93-3.4Q181.53-4.75 182.3-6.3 183.08-7.85 183.9-9.18 184.73-10.5 185.43-11.05L185.43-11.05Q185.83-11.4 186.33-11.63 186.83-11.85 187.33-11.85L187.33-11.85Q188.03-11.85 188.3-11.4 188.58-10.95 188.58-10.25L188.58-10.25Q188.58-9.5 187.98-8.3 187.38-7.1 186.65-5.85 185.93-4.6 185.48-3.78 185.03-2.95 185.33-2.95L185.33-2.95Q186.13-2.95 187.03-3.73 187.93-4.5 188.8-5.53 189.68-6.55 190.33-7.35L190.33-7.35Q190.58-7.65 190.98-7.95 191.38-8.25 191.83-8.25L191.83-8.25Q192.23-8.25 192.23-7.85L192.23-7.85Q192.23-7.7 192.15-7.58 192.08-7.45 192.03-7.35L192.03-7.35Q191.58-6.2 191.3-5 191.03-3.8 191.03-2.65L191.03-2.65Q191.03-2.15 191.13-1.55 191.23-0.95 191.88-0.95L191.88-0.95Q192.68-0.95 193.08-1.58 193.48-2.2 193.68-2.2L193.68-2.2Q193.78-2.2 193.78-2.05L193.78-2.05Q193.78-1.65 193.3-1.25 192.83-0.85 192.28-0.58 191.73-0.3 191.38-0.3L191.38-0.3Q190.33-0.3 190-1.18 189.68-2.05 189.68-2.85L189.68-2.85Q189.68-3.7 189.9-4.6 190.13-5.5 190.33-6.3L190.33-6.3Q189.98-5.95 189.3-5.23 188.63-4.5 187.85-3.75 187.08-3 186.35-2.48 185.63-1.95 185.08-1.95L185.08-1.95Q184.93-1.95 184.65-2.18 184.38-2.4 184.38-2.6L184.38-2.6Q184.33-3.2 184.8-4.35 185.28-5.5 185.8-6.63 186.33-7.75 186.48-8.3L186.48-8.3Q186.53-8.45 186.68-8.97 186.83-9.5 186.83-9.95L186.83-9.95Q186.83-10.55 186.43-10.55L186.43-10.55Q185.78-10.55 185.05-9.75 184.33-8.95 183.65-7.75 182.98-6.55 182.4-5.2 181.83-3.85 181.4-2.75 180.98-1.65 180.83-1.1L180.83-1.1Q180.83-1.05 180.8-1.03 180.78-1 180.78-1L180.78-1 180.83-0.65Q180.68-0.3 180.63-0.03 180.58 0.25 180.13 0.45L180.13 0.45Q180.08 0.45 180.05 0.48 180.03 0.5 179.93 0.5Z" opacity="1" transform="matrix(1,0,0,1,0,0)" fill="#ffffff" class="wordmark-text-0" data-fill-palette-color="primary" id="text-0"></path></svg></g></svg></g><g transform="matrix(1,0,0,1,2.5,116.54164881684898)"><svg viewBox="0 0 390.52 24.454740148423415" height="24.454740148423415" width="390.52"><g transform="matrix(1,0,0,1,0,0)"><svg width="390.52" viewBox="-0.18999999999999995 -40.45 883.8900000000001 56.290000000000006" height="24.454740148423415" data-palette-color="#ff6699"><path d="M35.96-9.5L35.96-9.5Q35.96-7.18 35.06-5.43 34.16-3.69 32.65-2.42 31.15-1.15 29.17-0.33 27.2 0.49 25.06 0.98 22.92 1.46 20.76 1.66 18.6 1.86 16.7 1.86L16.7 1.86Q14.31 1.86 12.32 1.72 10.33 1.59 8.64 1.33 6.96 1.07 5.53 0.7 4.1 0.32 2.81-0.15L2.81-0.15Q3.03-4.64 3.16-8.86 3.3-13.09 3.3-17.36L3.3-17.36Q3.3-21.61 3.16-25.94 3.03-30.27 2.81-34.96L2.81-34.96Q6.15-35.72 9.58-36.16 13.01-36.6 16.65-36.6L16.65-36.6Q18.14-36.6 20-36.44 21.85-36.28 23.75-35.85 25.66-35.42 27.48-34.69 29.3-33.96 30.71-32.81 32.13-31.67 32.98-30.08 33.84-28.49 33.84-26.34L33.84-26.34Q33.84-26.29 33.81-25.92 33.79-25.54 33.63-24.93 33.47-24.32 33.17-23.55 32.86-22.78 32.3-21.96 31.74-21.14 30.88-20.35 30.03-19.56 28.81-18.9L28.81-18.9Q30.52-18.24 31.71-17.37 32.91-16.5 33.7-15.54 34.5-14.58 34.95-13.61 35.4-12.65 35.62-11.82 35.84-10.99 35.9-10.38 35.96-9.77 35.96-9.5ZM25.24-4.1L25.24-4.1Q25.37-5.4 25.43-6.73 25.49-8.06 25.49-9.45L25.49-9.45Q25.49-10.77 25.43-12.07 25.37-13.38 25.24-14.7L25.24-14.7Q24.22-15.09 22.86-15.37 21.51-15.65 20.03-15.82 18.55-15.99 17.07-16.08 15.58-16.16 14.31-16.16L14.31-16.16 13.26-16.16Q13.06-14.72 12.95-13.26 12.84-11.79 12.84-10.25L12.84-10.25Q12.84-8.59 12.95-6.93 13.06-5.27 13.26-3.66L13.26-3.66Q14.36-3.66 15.86-3.67 17.36-3.69 18.98-3.72 20.61-3.76 22.23-3.85 23.85-3.93 25.24-4.1ZM23.24-20.9L23.24-20.9Q23.41-22 23.49-23.23 23.56-24.46 23.56-25.76L23.56-25.76Q23.56-27.1 23.47-28.45 23.39-29.81 23.19-31.1L23.19-31.1Q22.22-31.18 20.86-31.24 19.51-31.3 18.04-31.3L18.04-31.3Q16.72-31.3 15.48-31.26 14.23-31.23 13.26-31.1L13.26-31.1Q13.11-29.96 13.02-28.75 12.94-27.54 12.94-26.25L12.94-26.25Q12.94-24.88 13.02-23.52 13.11-22.17 13.26-20.8L13.26-20.8Q13.72-20.8 14.4-20.8 15.09-20.8 15.87-20.81 16.65-20.83 17.5-20.84 18.36-20.85 19.19-20.85L19.19-20.85Q21.09-20.87 23.24-20.9ZM64.84-15.5L64.84-15.5Q64.84-13.4 64.63-11.39 64.43-9.38 63.9-7.56 63.38-5.74 62.46-4.16 61.55-2.59 60.15-1.39 58.76-0.2 56.81 0.57 54.86 1.34 52.24 1.54L52.24 1.54Q45.53 1.54 42.16-1.86 38.79-5.25 38.79-11.89L38.79-11.89Q38.79-12.06 38.79-12.81 38.79-13.55 38.82-14.66 38.84-15.77 38.88-17.15 38.91-18.53 39.01-19.97 39.11-21.41 39.24-22.8 39.38-24.19 39.6-25.34L39.6-25.34 48.14-25.34Q47.68-22.92 47.46-20.24 47.24-17.55 47.24-14.75L47.24-14.75Q47.24-12.16 47.45-9.61 47.65-7.06 48.14-4.76L48.14-4.76Q49.05-4.64 49.91-4.57 50.78-4.49 51.63-4.49L51.63-4.49Q52.46-4.49 53.35-4.57 54.25-4.64 55.1-4.76L55.1-4.76Q55.37-7.06 55.5-9.58 55.64-12.11 55.64-14.7L55.64-14.7Q55.64-17.53 55.5-20.23 55.37-22.92 55.1-25.34L55.1-25.34 63.94-25.34Q64.48-22.49 64.66-19.95 64.84-17.41 64.84-15.5ZM68.45-25.49L77.75-25.49Q77.22-20.04 77.03-14.75 76.85-9.45 76.85-4.15L76.85-4.15Q76.85-3.22 76.85-2.28 76.85-1.34 76.9-0.39L76.9-0.39 69.36-0.39Q69.36-1.9 69.38-3.39 69.4-4.88 69.4-6.35L69.4-6.35Q69.4-11.21 69.17-15.97 68.94-20.73 68.45-25.49L68.45-25.49ZM77.75-33.4L77.75-33.4Q77.75-32.54 77.34-31.8 76.92-31.05 76.19-30.51 75.46-29.96 74.48-29.63 73.51-29.3 72.41-29.3L72.41-29.3Q71.31-29.3 70.36-29.63 69.4-29.96 68.7-30.51 67.99-31.05 67.57-31.8 67.16-32.54 67.16-33.4L67.16-33.4Q67.16-34.23 67.57-34.97 67.99-35.72 68.7-36.27 69.4-36.82 70.36-37.13 71.31-37.45 72.41-37.45L72.41-37.45Q73.51-37.45 74.48-37.13 75.46-36.82 76.19-36.27 76.92-35.72 77.34-34.97 77.75-34.23 77.75-33.4ZM82.34-36.79L91.01-36.79Q90.37-27.61 90.17-18.52 89.96-9.42 89.96-0.39L89.96-0.39 82.34-0.39Q82.46-4.88 82.51-9.3 82.56-13.72 82.56-18.19L82.56-18.19Q82.56-22.88 82.51-27.49 82.46-32.1 82.34-36.79L82.34-36.79ZM114.25-35.84L123.43-35.3Q122.87-26.56 122.62-17.59 122.38-8.62 122.38 0.24L122.38 0.24 114.25 0.24 114.39-2.49Q113.22-1.37 111.81-0.76 110.39-0.15 109.12 0.12L109.12 0.12Q107.63 0.44 106.14 0.49L106.14 0.49Q103.36 0.49 101.13-0.51 98.89-1.51 97.34-3.32 95.79-5.13 94.96-7.67 94.13-10.21 94.13-13.26L94.13-13.26Q94.13-15.28 94.62-17.02 95.11-18.75 95.96-20.17 96.82-21.58 97.96-22.66 99.11-23.73 100.41-24.46 101.7-25.2 103.09-25.57 104.48-25.95 105.85-25.95L105.85-25.95Q107.53-25.9 109.15-25.51L109.15-25.51Q109.83-25.34 110.56-25.09 111.29-24.83 112.01-24.46 112.73-24.1 113.41-23.61 114.08-23.12 114.64-22.46L114.64-22.46Q114.57-25.85 114.47-29.19 114.37-32.52 114.25-35.84L114.25-35.84ZM111.44-5.91L111.44-5.91Q112.12-5.91 112.89-5.91 113.66-5.91 114.49-5.96L114.49-5.96Q114.61-8.47 114.65-11.02 114.69-13.57 114.69-16.16L114.69-16.16 114.69-19.14Q112.86-19.34 111.31-19.47 109.76-19.6 108-19.6L108-19.6Q107.07-19.6 106.08-19.57 105.09-19.53 103.9-19.46L103.9-19.46Q103.58-17.26 103.43-15.09 103.29-12.92 103.29-10.69L103.29-10.69Q103.29-9.59 103.3-8.52 103.31-7.45 103.43-6.35L103.43-6.35Q104.65-6.23 105.69-6.15 106.73-6.08 107.69-6.02 108.66-5.96 109.57-5.93 110.49-5.91 111.44-5.91ZM142.22-25.49L151.52-25.49Q150.99-20.04 150.8-14.75 150.62-9.45 150.62-4.15L150.62-4.15Q150.62-3.22 150.62-2.28 150.62-1.34 150.67-0.39L150.67-0.39 143.12-0.39Q143.12-1.9 143.15-3.39 143.17-4.88 143.17-6.35L143.17-6.35Q143.17-11.21 142.94-15.97 142.71-20.73 142.22-25.49L142.22-25.49ZM151.52-33.4L151.52-33.4Q151.52-32.54 151.11-31.8 150.69-31.05 149.96-30.51 149.23-29.96 148.25-29.63 147.28-29.3 146.18-29.3L146.18-29.3Q145.08-29.3 144.13-29.63 143.17-29.96 142.47-30.51 141.76-31.05 141.34-31.8 140.93-32.54 140.93-33.4L140.93-33.4Q140.93-34.23 141.34-34.97 141.76-35.72 142.47-36.27 143.17-36.82 144.13-37.13 145.08-37.45 146.18-37.45L146.18-37.45Q147.28-37.45 148.25-37.13 149.23-36.82 149.96-36.27 150.69-35.72 151.11-34.97 151.52-34.23 151.52-33.4ZM179.01-25.95L179.01-18.6Q176.64-18.73 174.26-18.82 171.88-18.92 169.51-18.99L169.51-18.99Q169.22-14.14 169-9.3 168.78-4.47 168.66 0.44L168.66 0.44 161.53 1.15Q161.68-7.79 161.68-16.55L161.68-16.55 161.68-19.14 159.92-19.14Q158.45-19.14 156.99-19.12 155.52-19.09 154.06-19.09L154.06-19.09 154.06-25.29Q154.69-25.29 155.34-25.27 155.99-25.24 156.67-25.24L156.67-25.24 161.63-25.24Q161.63-27.51 161.6-29.72 161.58-31.93 161.53-34.16L161.53-34.16 170.78-34.16Q170.54-31.96 170.36-29.8 170.17-27.64 170.03-25.49L170.03-25.49Q172.3-25.59 174.51-25.7 176.72-25.81 179.01-25.95L179.01-25.95ZM219.53-5.76L219.53-5.76Q219.68-7.23 219.8-8.98 219.92-10.74 220-12.57 220.07-14.4 220.11-16.17 220.14-17.94 220.14-19.41L220.14-19.41Q220.14-22.22 220-25.26 219.85-28.3 219.53-31.1L219.53-31.1Q219.17-31.13 218.65-31.15 218.14-31.18 217.59-31.19 217.04-31.2 216.53-31.2 216.02-31.2 215.65-31.2L215.65-31.2Q214.55-31.2 213.32-31.15 212.09-31.1 210.82-30.99 209.55-30.88 208.31-30.73 207.08-30.57 205.98-30.35L205.98-30.35Q205.98-29.81 205.97-28.97 205.96-28.13 205.96-27.23 205.96-26.34 205.95-25.52 205.93-24.71 205.93-24.19L205.93-24.19Q205.93-19.63 206.24-14.92 206.54-10.21 207.16-5.76L207.16-5.76Q207.77-5.66 208.53-5.59 209.3-5.52 210.11-5.48 210.92-5.44 211.7-5.42 212.48-5.4 213.09-5.4L213.09-5.4Q213.77-5.4 214.6-5.42 215.43-5.44 216.29-5.48 217.14-5.52 217.98-5.59 218.83-5.66 219.53-5.76ZM231.45-17.65L231.45-17.65Q231.45-13.65 230.1-10.21 228.76-6.76 226.3-4.24 223.83-1.71 220.38-0.26 216.92 1.2 212.7 1.2L212.7 1.2Q210.87 1.2 208.89 0.77 206.91 0.34 205.01-0.62 203.1-1.59 201.38-3.13 199.66-4.66 198.37-6.88 197.07-9.11 196.3-12.06 195.53-15.01 195.53-18.8L195.53-18.8Q195.53-22.51 196.4-25.29 197.27-28.08 198.68-30.07 200.1-32.06 201.94-33.35 203.79-34.64 205.74-35.4 207.69-36.16 209.6-36.45 211.5-36.74 213.09-36.74L213.09-36.74Q215.55-36.74 217.86-36.29 220.17-35.84 222.19-34.88 224.22-33.91 225.91-32.4 227.59-30.88 228.81-28.76 230.03-26.64 230.73-23.88 231.42-21.12 231.45-17.65ZM261.74-12.74L261.74-12.74Q261.74-9.5 261.4-6.13 261.06-2.76 260.23 0.61L260.23 0.61 251.73 0.61Q252.05-3.03 252.22-6.58 252.39-10.13 252.39-13.75L252.39-13.75Q252.39-14.97 252.39-16.17 252.39-17.38 252.34-18.6L252.34-18.6Q251.24-18.73 250.17-18.76 249.1-18.8 248-18.8L248-18.8Q245.92-18.8 243.73-18.65L243.73-18.65Q243.65-16.65 243.62-14.94 243.58-13.23 243.58-11.55L243.58-11.55Q243.58-10.3 243.6-9.02 243.63-7.74 243.69-6.27 243.75-4.81 243.85-3.11 243.94-1.42 244.09 0.61L244.09 0.61 235.89 0.61Q235.89-2.32 235.86-4.57 235.84-6.81 235.79-8.7 235.74-10.6 235.66-12.32 235.57-14.04 235.45-15.93 235.33-17.82 235.18-20.06 235.03-22.29 234.84-25.2L234.84-25.2 244.09-25.76 243.9-22.29Q245.29-23.27 246.75-23.8 248.22-24.34 249.44-24.61L249.44-24.61Q250.85-24.9 252.2-24.95L252.2-24.95Q253.98-24.95 255.38-24.46 256.79-23.97 257.85-23.11 258.91-22.24 259.64-21.07 260.38-19.9 260.85-18.54 261.33-17.19 261.54-15.7 261.74-14.21 261.74-12.74ZM292.6-16.21L282.83-16.21Q282.96-16.8 283-17.4 283.05-17.99 283.05-18.6L283.05-18.6Q283.05-19.17 283-19.7 282.96-20.24 282.83-20.8L282.83-20.8Q281.78-21 280.71-21.07 279.64-21.14 278.49-21.14L278.49-21.14Q277.37-21.14 276.22-21.07 275.07-21 273.9-20.8L273.9-20.8Q273.78-19.48 273.72-18.21 273.65-16.94 273.65-15.65L273.65-15.65Q273.65-12.67 273.96-9.75 274.26-6.84 274.8-3.91L274.8-3.91Q275.9-3.78 276.91-3.75 277.93-3.71 279-3.71L279-3.71Q280.05-3.71 281.08-3.75 282.1-3.78 283.2-3.91L283.2-3.91Q283.25-4.42 283.27-4.91 283.3-5.4 283.3-5.86L283.3-5.86Q283.3-6.3 283.27-6.74 283.25-7.18 283.2-7.59L283.2-7.59 292.4-7.4Q291.72-5.08 290.44-3.42 289.16-1.76 287.41-0.7 285.67 0.37 283.52 0.85 281.37 1.34 279 1.34L279 1.34Q276.1 1.34 273.54 0.56 270.99-0.22 269.1-1.97 267.21-3.71 266.12-6.52 265.04-9.33 265.04-13.4L265.04-13.4Q265.04-16.7 266.18-19.07 267.33-21.44 269.25-22.97 271.16-24.51 273.69-25.23 276.22-25.95 279-25.95L279-25.95Q281.47-25.95 283.69-25.38 285.91-24.8 287.7-23.62 289.5-22.44 290.77-20.59 292.04-18.75 292.6-16.21L292.6-16.21ZM322.8-12.3L322.8-11.45 303.71-9.91Q303.83-8.4 304.05-6.91 304.27-5.42 304.61-3.91L304.61-3.91Q306.76-3.76 308.76-3.76L308.76-3.76Q309.86-3.76 310.88-3.8 311.91-3.83 313.01-3.91L313.01-3.91Q313.06-4.39 313.08-4.88 313.1-5.37 313.1-5.86L313.1-5.86Q313.1-6.3 313.09-6.73 313.08-7.15 313.01-7.59L313.01-7.59 322.21-7.4Q321.53-5.08 320.25-3.42 318.96-1.76 317.22-0.7 315.47 0.37 313.32 0.85 311.18 1.34 308.81 1.34L308.81 1.34Q305.9 1.34 303.35 0.56 300.8-0.22 298.91-1.97 297.02-3.71 295.93-6.52 294.84-9.33 294.84-13.4L294.84-13.4Q294.84-16.7 295.99-19.07 297.14-21.44 299.05-22.97 300.97-24.51 303.5-25.23 306.02-25.95 308.81-25.95L308.81-25.95Q311.71-25.95 314.26-25.17 316.82-24.39 318.71-22.73 320.6-21.07 321.7-18.48 322.8-15.89 322.8-12.3L322.8-12.3ZM303.46-15.04L303.46-15.04 313.25-15.04Q313.25-18.07 312.64-20.8L312.64-20.8Q310.54-21.24 308.25-21.24L308.25-21.24Q306-21.24 303.71-20.8L303.71-20.8Q303.56-19.43 303.51-18.03 303.46-16.63 303.46-15.04ZM336.15-1.49L336.15-1.49Q336.1 0.17 335.65 1.72 335.2 3.27 334.66 4.49L334.66 4.49Q334.03 5.91 333.24 7.15L333.24 7.15 327.99 6.35Q328.78 5.3 329.25 4.25 329.73 3.2 330 2.34L330 2.34Q329.09 2.22 328.32 1.88 327.56 1.54 326.99 1.03 326.43 0.51 326.11-0.12 325.8-0.76 325.8-1.49L325.8-1.49Q325.8-2.32 326.21-3.05 326.63-3.78 327.34-4.32 328.04-4.86 328.98-5.18 329.92-5.49 331-5.49L331-5.49Q332.07-5.49 333.01-5.18 333.95-4.86 334.65-4.32 335.34-3.78 335.75-3.05 336.15-2.32 336.15-1.49ZM383.09-36.6L382.68-29.96Q380.85-30.08 378.82-30.16 376.79-30.25 374.69-30.25L374.69-30.25Q370.64-30.25 366.69-29.96L366.69-29.96Q366.56-27.73 366.5-24.79 366.44-21.85 366.44-18.65L366.44-18.65Q366.88-18.6 367.33-18.63 367.78-18.65 368.27-18.65L368.27-18.65Q370.54-18.65 372.84-18.77 375.13-18.9 377.57-19.19L377.57-19.19Q377.45-18.36 377.42-17.57 377.38-16.77 377.38-15.94L377.38-15.94Q377.38-15.11 377.42-14.29 377.45-13.48 377.57-12.65L377.57-12.65Q375.89-12.87 374.21-12.99 372.52-13.11 370.84-13.11L370.84-13.11Q369.74-13.11 368.64-13.07 367.54-13.04 366.44-12.94L366.44-12.94Q366.44-10.16 366.45-7.69 366.47-5.22 366.52-3.32L366.52-3.32Q366.54-1.1 366.59 0.81L366.59 0.81Q365.15 0.81 363.79 0.83 362.44 0.85 361.08 0.92 359.73 0.98 358.32 1.07 356.92 1.17 355.38 1.34L355.38 1.34Q355.85-2.2 356.13-5.88 356.41-9.57 356.55-13.29 356.7-17.02 356.74-20.7 356.77-24.39 356.77-27.91L356.77-27.91 356.77-36.21Q359-36.08 361.33-36.02 363.66-35.96 366.08-35.96L366.08-35.96Q370.2-35.96 374.44-36.13 378.67-36.3 383.09-36.6L383.09-36.6ZM386.07-36.79L394.74-36.79Q394.1-27.61 393.89-18.52 393.69-9.42 393.69-0.39L393.69-0.39 386.07-0.39Q386.19-4.88 386.24-9.3 386.29-13.72 386.29-18.19L386.29-18.19Q386.29-22.88 386.24-27.49 386.19-32.1 386.07-36.79L386.07-36.79ZM424.62-15.5L424.62-15.5Q424.62-13.4 424.41-11.39 424.2-9.38 423.68-7.56 423.15-5.74 422.24-4.16 421.32-2.59 419.93-1.39 418.54-0.2 416.58 0.57 414.63 1.34 412.02 1.54L412.02 1.54Q405.3 1.54 401.94-1.86 398.57-5.25 398.57-11.89L398.57-11.89Q398.57-12.06 398.57-12.81 398.57-13.55 398.59-14.66 398.61-15.77 398.65-17.15 398.69-18.53 398.79-19.97 398.88-21.41 399.02-22.8 399.15-24.19 399.37-25.34L399.37-25.34 407.92-25.34Q407.45-22.92 407.23-20.24 407.01-17.55 407.01-14.75L407.01-14.75Q407.01-12.16 407.22-9.61 407.43-7.06 407.92-4.76L407.92-4.76Q408.82-4.64 409.69-4.57 410.55-4.49 411.41-4.49L411.41-4.49Q412.24-4.49 413.13-4.57 414.02-4.64 414.87-4.76L414.87-4.76Q415.14-7.06 415.28-9.58 415.41-12.11 415.41-14.7L415.41-14.7Q415.41-17.53 415.28-20.23 415.14-22.92 414.87-25.34L414.87-25.34 423.71-25.34Q424.25-22.49 424.43-19.95 424.62-17.41 424.62-15.5ZM451.66-25.95L451.66-18.6Q449.3-18.73 446.92-18.82 444.54-18.92 442.17-18.99L442.17-18.99Q441.87-14.14 441.65-9.3 441.43-4.47 441.31 0.44L441.31 0.44 434.18 1.15Q434.33-7.79 434.33-16.55L434.33-16.55 434.33-19.14 432.57-19.14Q431.11-19.14 429.64-19.12 428.18-19.09 426.71-19.09L426.71-19.09 426.71-25.29Q427.35-25.29 427.99-25.27 428.64-25.24 429.33-25.24L429.33-25.24 434.28-25.24Q434.28-27.51 434.26-29.72 434.23-31.93 434.18-34.16L434.18-34.16 443.44-34.16Q443.19-31.96 443.01-29.8 442.83-27.64 442.68-25.49L442.68-25.49Q444.95-25.59 447.16-25.7 449.37-25.81 451.66-25.95L451.66-25.95ZM477.66-25.95L477.66-18.6Q475.29-18.73 472.91-18.82 470.53-18.92 468.17-18.99L468.17-18.99Q467.87-14.14 467.65-9.3 467.43-4.47 467.31 0.44L467.31 0.44 460.18 1.15Q460.33-7.79 460.33-16.55L460.33-16.55 460.33-19.14 458.57-19.14Q457.11-19.14 455.64-19.12 454.18-19.09 452.71-19.09L452.71-19.09 452.71-25.29Q453.35-25.29 453.99-25.27 454.64-25.24 455.32-25.24L455.32-25.24 460.28-25.24Q460.28-27.51 460.26-29.72 460.23-31.93 460.18-34.16L460.18-34.16 469.43-34.16Q469.19-31.96 469.01-29.8 468.82-27.64 468.68-25.49L468.68-25.49Q470.95-25.59 473.16-25.7 475.37-25.81 477.66-25.95L477.66-25.95ZM507.52-12.3L507.52-11.45 488.43-9.91Q488.55-8.4 488.77-6.91 488.99-5.42 489.33-3.91L489.33-3.91Q491.48-3.76 493.48-3.76L493.48-3.76Q494.58-3.76 495.6-3.8 496.63-3.83 497.73-3.91L497.73-3.91Q497.78-4.39 497.8-4.88 497.83-5.37 497.83-5.86L497.83-5.86Q497.83-6.3 497.81-6.73 497.8-7.15 497.73-7.59L497.73-7.59 506.93-7.4Q506.25-5.08 504.97-3.42 503.69-1.76 501.94-0.7 500.19 0.37 498.05 0.85 495.9 1.34 493.53 1.34L493.53 1.34Q490.62 1.34 488.07 0.56 485.52-0.22 483.63-1.97 481.74-3.71 480.65-6.52 479.56-9.33 479.56-13.4L479.56-13.4Q479.56-16.7 480.71-19.07 481.86-21.44 483.78-22.97 485.69-24.51 488.22-25.23 490.75-25.95 493.53-25.95L493.53-25.95Q496.43-25.95 498.99-25.17 501.54-24.39 503.43-22.73 505.32-21.07 506.42-18.48 507.52-15.89 507.52-12.3L507.52-12.3ZM488.18-15.04L488.18-15.04 497.97-15.04Q497.97-18.07 497.36-20.8L497.36-20.8Q495.26-21.24 492.97-21.24L492.97-21.24Q490.72-21.24 488.43-20.8L488.43-20.8Q488.28-19.43 488.23-18.03 488.18-16.63 488.18-15.04ZM538.01-12.4L529.22-11.69Q529.27-12.3 529.32-12.9 529.37-13.5 529.37-14.11L529.37-14.11Q529.37-16.21 528.93-18.26L528.93-18.26Q526.66-18.16 524.42-17.94 522.19-17.72 519.92-17.36L519.92-17.36 519.92-12.5Q519.92-9.3 519.92-6.16 519.92-3.03 519.97 0.15L519.97 0.15 511.28 0.76Q511.35-0.15 511.36-1.03 511.37-1.9 511.37-2.81L511.37-2.81Q511.37-8.47 511.17-14.01 510.96-19.56 510.57-25.15L510.57-25.15 519.97-25.95Q519.97-25.27 519.94-24.6 519.92-23.93 519.92-23.24L519.92-23.24Q521.33-24.27 522.76-24.8 524.19-25.34 525.36-25.61L525.36-25.61Q526.71-25.9 527.97-25.95L527.97-25.95Q530.86-25.81 533.13-24.63L533.13-24.63Q534.08-24.15 535.01-23.38 535.93-22.61 536.67-21.5 537.4-20.39 537.84-18.88 538.28-17.38 538.28-15.41L538.28-15.41Q538.28-14.72 538.2-13.98 538.13-13.23 538.01-12.4L538.01-12.4ZM579.29-15.41L579.29-15.41Q577.7-15.53 576.11-15.59 574.53-15.65 572.94-15.65L572.94-15.65Q571.4-15.65 569.86-15.59 568.33-15.53 566.74-15.41L566.74-15.41 566.74-11.3Q566.74-9.84 566.76-8.48 566.79-7.13 566.84-5.96L566.84-5.96Q568.42-6.01 570.22-6.01 572.01-6.01 573.84-6.01L573.84-6.01Q575.67-6.01 577.36-5.99 579.04-5.98 580.36-5.98L580.36-5.98Q581.88-5.96 583.24-5.96L583.24-5.96Q583.22-5.62 583.19-5.2L583.19-5.2Q583.17-4.86 583.16-4.37 583.15-3.88 583.15-3.3L583.15-3.3Q583.15-2.54 583.18-1.66 583.22-0.78 583.29 0.15L583.29 0.15Q582.34 0.1 581.35 0.1 580.36 0.1 579.43 0.1L579.43 0.1Q573.6 0.1 567.87 0.28 562.15 0.46 556.34 0.85L556.34 0.85Q556.34 0.12 556.36-1.2 556.39-2.51 556.42-4.28 556.46-6.05 556.52-8.17 556.58-10.28 556.63-12.57 556.68-14.87 556.74-17.26 556.8-19.65 556.84-21.98 556.88-24.32 556.9-26.48 556.92-28.64 556.92-30.49L556.92-30.49Q556.92-32.28 556.91-33.65 556.9-35.03 556.83-35.96L556.83-35.96Q559.34-35.96 561.86-35.93 564.37-35.89 566.93-35.89L566.93-35.89Q570.79-35.89 574.67-36.01 578.56-36.13 582.63-36.55L582.63-36.55Q582.51-35.72 582.47-34.95 582.44-34.18 582.44-33.5L582.44-33.5Q582.44-32.84 582.46-32.29 582.49-31.74 582.54-31.35L582.54-31.35Q582.58-30.91 582.63-30.54L582.63-30.54Q579.78-30.4 576.99-30.3L576.99-30.3Q575.8-30.25 574.52-30.21 573.23-30.18 571.95-30.14 570.67-30.1 569.46-30.08 568.25-30.05 567.23-30.05L567.23-30.05Q567.18-28.88 567.11-27.51L567.11-27.51Q567.06-26.34 567-24.76 566.93-23.17 566.89-21.34L566.89-21.34Q569.86-21.39 572.9-21.53 575.94-21.68 579.29-21.95L579.29-21.95Q579.21-21.02 579.15-20.08 579.09-19.14 579.09-18.14L579.09-18.14Q579.09-17.48 579.13-16.8 579.17-16.11 579.29-15.41ZM604.46-26.76L613.9-26.76Q608.63-13.84 605.24-0.76L605.24-0.76 591.59 0.39Q590.81-2.76 590.08-5.9 589.34-9.03 588.55-12.17 587.76-15.31 586.88-18.42 586-21.53 584.9-24.66L584.9-24.66 594.15-24.66Q594.98-19.43 596.16-14.34 597.33-9.25 598.94-4.2L598.94-4.2Q600.75-9.81 602.09-15.44 603.43-21.07 604.46-26.76L604.46-26.76ZM642.54-12.3L642.54-11.45 623.45-9.91Q623.57-8.4 623.79-6.91 624.01-5.42 624.35-3.91L624.35-3.91Q626.5-3.76 628.5-3.76L628.5-3.76Q629.6-3.76 630.63-3.8 631.65-3.83 632.75-3.91L632.75-3.91Q632.8-4.39 632.82-4.88 632.85-5.37 632.85-5.86L632.85-5.86Q632.85-6.3 632.84-6.73 632.82-7.15 632.75-7.59L632.75-7.59 641.95-7.4Q641.27-5.08 639.99-3.42 638.71-1.76 636.96-0.7 635.22 0.37 633.07 0.85 630.92 1.34 628.55 1.34L628.55 1.34Q625.65 1.34 623.09 0.56 620.54-0.22 618.65-1.97 616.76-3.71 615.67-6.52 614.59-9.33 614.59-13.4L614.59-13.4Q614.59-16.7 615.73-19.07 616.88-21.44 618.8-22.97 620.71-24.51 623.24-25.23 625.77-25.95 628.55-25.95L628.55-25.95Q631.46-25.95 634.01-25.17 636.56-24.39 638.45-22.73 640.34-21.07 641.44-18.48 642.54-15.89 642.54-12.3L642.54-12.3ZM623.2-15.04L623.2-15.04 632.99-15.04Q632.99-18.07 632.38-20.8L632.38-20.8Q630.28-21.24 627.99-21.24L627.99-21.24Q625.74-21.24 623.45-20.8L623.45-20.8Q623.3-19.43 623.25-18.03 623.2-16.63 623.2-15.04ZM673.03-12.4L664.24-11.69Q664.29-12.3 664.34-12.9 664.39-13.5 664.39-14.11L664.39-14.11Q664.39-16.21 663.95-18.26L663.95-18.26Q661.68-18.16 659.44-17.94 657.21-17.72 654.94-17.36L654.94-17.36 654.94-12.5Q654.94-9.3 654.94-6.16 654.94-3.03 654.99 0.15L654.99 0.15 646.3 0.76Q646.37-0.15 646.38-1.03 646.39-1.9 646.39-2.81L646.39-2.81Q646.39-8.47 646.19-14.01 645.98-19.56 645.59-25.15L645.59-25.15 654.99-25.95Q654.99-25.27 654.96-24.6 654.94-23.93 654.94-23.24L654.94-23.24Q656.36-24.27 657.78-24.8 659.21-25.34 660.38-25.61L660.38-25.61Q661.73-25.9 663-25.95L663-25.95Q665.88-25.81 668.15-24.63L668.15-24.63Q669.1-24.15 670.03-23.38 670.96-22.61 671.69-21.5 672.42-20.39 672.86-18.88 673.3-17.38 673.3-15.41L673.3-15.41Q673.3-14.72 673.23-13.98 673.15-13.23 673.03-12.4L673.03-12.4ZM693.02-25.71L703.18-25.29Q703.06-18.9 702.86-14.26 702.67-9.62 702.47-6.52L702.47-6.52Q702.25-2.91 702.03-0.44L702.03-0.44Q701.89 2.51 700.95 4.96 700.01 7.4 698.3 9.16 696.59 10.91 694.15 11.88 691.7 12.84 688.53 12.84L688.53 12.84Q686.41 12.84 684.82 12.59 683.23 12.33 682.05 11.83 680.87 11.33 680.02 10.6 679.18 9.86 678.55 8.9 677.91 7.93 677.43 6.74 676.96 5.54 676.52 4.15L676.52 4.15 685.48 3.96Q685.48 4.3 685.45 4.6 685.43 4.91 685.43 5.2L685.43 5.2Q685.43 7.03 685.72 8.74L685.72 8.74Q686.68 8.86 687.38 8.94 688.09 9.01 688.78 9.01L688.78 9.01Q689.7 9.01 690.68 8.89 691.66 8.76 693.02 8.54L693.02 8.54Q693.27 5.98 693.44 3.45 693.61 0.93 693.73-1.61L693.73-1.61Q692.71-1.17 691.77-0.94 690.83-0.71 690.12-0.59L690.12-0.59Q689.29-0.46 688.53-0.44L688.53-0.44Q684.99-0.44 682.7-1.33 680.4-2.22 679-3.85 677.59-5.47 676.95-7.75 676.3-10.03 676.06-12.79 675.81-15.55 675.81-18.71 675.81-21.88 675.74-25.29L675.74-25.29 685.72-24.61Q685.53-22.31 685.41-20.04 685.28-17.77 685.28-15.5L685.28-15.5Q685.28-13.16 685.41-10.85 685.53-8.54 685.72-6.25L685.72-6.25Q686.63-6.18 687.41-6.16 688.19-6.15 688.97-6.15L688.97-6.15Q690.26-6.15 691.47-6.19 692.68-6.23 693.88-6.35L693.88-6.35Q693.93-7.13 693.93-7.95 693.93-8.76 693.93-9.55L693.93-9.55Q693.93-13.62 693.72-17.65 693.51-21.68 693.02-25.71L693.02-25.71ZM740.92-26.1L747.17-26.1 742.53 0.39 730.23 0.39 727.08-17.7 722.17-0.56 710.87-0.56 706.18-25.61 716.21-25.61 719.68-6.96 725.08-25.1 733.77-25.1 737.82-5.44 740.92-26.1ZM776.73-13.75L776.73-13.75Q776.73-10.5 776.39-7.13 776.05-3.76 775.22-0.39L775.22-0.39 766.72-0.39Q767.02-4.03 767.2-7.58 767.38-11.13 767.38-14.75L767.38-14.75Q767.38-15.97 767.38-17.18 767.38-18.38 767.33-19.6L767.33-19.6Q766.24-19.73 765.15-19.76 764.06-19.8 762.96-19.8L762.96-19.8Q760.77-19.8 758.57-19.65L758.57-19.65 758.57-16.5Q758.57-12.48 758.69-8.48 758.81-4.49 759.08-0.39L759.08-0.39 750.88-0.39Q750.88-9.23 750.64-17.9 750.39-26.56 749.83-35.3L749.83-35.3 759.08-35.84Q758.91-32.64 758.79-29.47 758.67-26.29 758.62-23.1L758.62-23.1Q760.03-24.17 761.55-24.74 763.06-25.32 764.31-25.59L764.31-25.59Q765.77-25.9 767.16-25.95L767.16-25.95Q768.95-25.95 770.35-25.46 771.75-24.98 772.82-24.11 773.88-23.24 774.62-22.07 775.37-20.9 775.84-19.54 776.32-18.19 776.53-16.7 776.73-15.21 776.73-13.75ZM807.91-12.3L807.91-11.45 788.82-9.91Q788.94-8.4 789.16-6.91 789.38-5.42 789.72-3.91L789.72-3.91Q791.87-3.76 793.87-3.76L793.87-3.76Q794.97-3.76 795.99-3.8 797.02-3.83 798.12-3.91L798.12-3.91Q798.17-4.39 798.19-4.88 798.22-5.37 798.22-5.86L798.22-5.86Q798.22-6.3 798.2-6.73 798.19-7.15 798.12-7.59L798.12-7.59 807.32-7.4Q806.64-5.08 805.36-3.42 804.08-1.76 802.33-0.7 800.58 0.37 798.44 0.85 796.29 1.34 793.92 1.34L793.92 1.34Q791.01 1.34 788.46 0.56 785.91-0.22 784.02-1.97 782.13-3.71 781.04-6.52 779.95-9.33 779.95-13.4L779.95-13.4Q779.95-16.7 781.1-19.07 782.25-21.44 784.17-22.97 786.08-24.51 788.61-25.23 791.14-25.95 793.92-25.95L793.92-25.95Q796.82-25.95 799.38-25.17 801.93-24.39 803.82-22.73 805.71-21.07 806.81-18.48 807.91-15.89 807.91-12.3L807.91-12.3ZM788.57-15.04L788.57-15.04 798.36-15.04Q798.36-18.07 797.75-20.8L797.75-20.8Q795.65-21.24 793.36-21.24L793.36-21.24Q791.11-21.24 788.82-20.8L788.82-20.8Q788.67-19.43 788.62-18.03 788.57-16.63 788.57-15.04ZM838.4-12.4L829.61-11.69Q829.66-12.3 829.71-12.9 829.76-13.5 829.76-14.11L829.76-14.11Q829.76-16.21 829.32-18.26L829.32-18.26Q827.05-18.16 824.81-17.94 822.58-17.72 820.31-17.36L820.31-17.36 820.31-12.5Q820.31-9.3 820.31-6.16 820.31-3.03 820.36 0.15L820.36 0.15 811.67 0.76Q811.74-0.15 811.75-1.03 811.76-1.9 811.76-2.81L811.76-2.81Q811.76-8.47 811.56-14.01 811.35-19.56 810.96-25.15L810.96-25.15 820.36-25.95Q820.36-25.27 820.33-24.6 820.31-23.93 820.31-23.24L820.31-23.24Q821.72-24.27 823.15-24.8 824.58-25.34 825.75-25.61L825.75-25.61Q827.1-25.9 828.36-25.95L828.36-25.95Q831.25-25.81 833.52-24.63L833.52-24.63Q834.47-24.15 835.4-23.38 836.32-22.61 837.06-21.5 837.79-20.39 838.23-18.88 838.67-17.38 838.67-15.41L838.67-15.41Q838.67-14.72 838.59-13.98 838.52-13.23 838.4-12.4L838.4-12.4ZM868.6-12.3L868.6-11.45 849.5-9.91Q849.63-8.4 849.85-6.91 850.07-5.42 850.41-3.91L850.41-3.91Q852.56-3.76 854.56-3.76L854.56-3.76Q855.66-3.76 856.68-3.8 857.71-3.83 858.81-3.91L858.81-3.91Q858.86-4.39 858.88-4.88 858.9-5.37 858.9-5.86L858.9-5.86Q858.9-6.3 858.89-6.73 858.88-7.15 858.81-7.59L858.81-7.59 868.01-7.4Q867.33-5.08 866.05-3.42 864.76-1.76 863.02-0.7 861.27 0.37 859.12 0.85 856.98 1.34 854.61 1.34L854.61 1.34Q851.7 1.34 849.15 0.56 846.6-0.22 844.71-1.97 842.82-3.71 841.73-6.52 840.64-9.33 840.64-13.4L840.64-13.4Q840.64-16.7 841.79-19.07 842.94-21.44 844.85-22.97 846.77-24.51 849.3-25.23 851.82-25.95 854.61-25.95L854.61-25.95Q857.51-25.95 860.06-25.17 862.62-24.39 864.51-22.73 866.4-21.07 867.5-18.48 868.6-15.89 868.6-12.3L868.6-12.3ZM849.26-15.04L849.26-15.04 859.05-15.04Q859.05-18.07 858.44-20.8L858.44-20.8Q856.34-21.24 854.05-21.24L854.05-21.24Q851.8-21.24 849.5-20.8L849.5-20.8Q849.36-19.43 849.31-18.03 849.26-16.63 849.26-15.04ZM880.7-1.49L880.7-1.49Q880.7-0.78 880.35-0.16 880 0.46 879.37 0.94 878.75 1.42 877.93 1.68 877.11 1.95 876.19 1.95L876.19 1.95Q875.23 1.95 874.4 1.68 873.57 1.42 872.96 0.94 872.35 0.46 872-0.16 871.65-0.78 871.65-1.49L871.65-1.49Q871.65-2.22 872-2.86 872.35-3.49 872.96-3.97 873.57-4.44 874.4-4.72 875.23-5 876.19-5L876.19-5Q877.11-5 877.93-4.72 878.75-4.44 879.37-3.97 880-3.49 880.35-2.86 880.7-2.22 880.7-1.49Z" opacity="1" transform="matrix(1,0,0,1,0,0)" fill="#ff6699" class="slogan-text-1" data-fill-palette-color="secondary" id="text-1"></path></svg></g></svg></g></svg></g></svg></g></svg></g></svg></g></svg></g></svg></g><defs></defs></svg><rect width="395.52" height="247.2" fill="none" stroke="none" visibility="hidden"></rect></g></svg></g></svg>